<svg width="110" height="61" viewBox="0 0 110 61" fill="none" xmlns="http://www.w3.org/2000/svg">
<g clip-path="url(#clip0_1_53242)">
<path d="M0 17.4245C0 9.06841 6.77739 2.29102 15.1335 2.29102H42.8665C51.2226 2.29102 58 9.06841 58 17.4245V45.1575C58 53.5136 51.2226 60.291 42.8665 60.291H15.1335C6.77739 60.281 0 53.5036 0 45.1475" fill="#133469"/>
<rect width="110" height="61" rx="12" fill="#14366D"/>
<rect width="110" height="58" rx="12" fill="#1C64C0"/>
<path d="M7.26502 46.6653C7.26502 47.4152 6.68172 47.9947 5.99237 47.9947C5.30302 47.9947 4.71973 47.4152 4.71973 46.6653C4.71973 45.9154 5.30302 45.3359 5.99237 45.3359C6.68172 45.3359 7.26502 45.9154 7.26502 46.6653Z" fill="url(#paint0_linear_1_53242)"/>
<path d="M99.7169 6.85085C99.7169 7.60075 99.1336 8.18022 98.4443 8.18022C97.7549 8.18022 97.1716 7.60075 97.1716 6.85085C97.1716 6.10095 97.7549 5.52148 98.4443 5.52148C99.1336 5.52148 99.7169 6.10095 99.7169 6.85085Z" fill="url(#paint1_linear_1_53242)"/>
<path d="M8.06029 49.5952C8.06029 50.0724 7.6891 50.4815 7.26489 50.4815C6.84067 50.4815 6.46948 50.0724 6.46948 49.5952C6.46948 49.118 6.84067 48.709 7.26489 48.709C7.6891 48.709 8.06029 49.118 8.06029 49.5952Z" fill="url(#paint2_linear_1_53242)"/>
<path d="M9.86323 50.0383C9.86323 50.3791 9.6246 50.6859 9.35947 50.6859C9.09433 50.6859 8.85571 50.4132 8.85571 50.0383C8.85571 49.6633 9.09433 49.3906 9.35947 49.3906C9.6246 49.3906 9.86323 49.6633 9.86323 50.0383Z" fill="url(#paint3_linear_1_53242)"/>
<path d="M4.53388 44.9269C4.53388 45.2678 4.29526 45.5746 4.03012 45.5746C3.76499 45.5746 3.52637 45.3019 3.52637 44.9269C3.52637 44.552 3.76499 44.2793 4.03012 44.2793C4.29526 44.2793 4.53388 44.552 4.53388 44.9269Z" fill="url(#paint4_linear_1_53242)"/>
<path d="M100.724 9.47577C100.724 9.81663 100.486 10.1234 100.221 10.1234C99.9554 10.1234 99.7168 9.85072 99.7168 9.47577C99.7168 9.10082 99.9554 8.82812 100.221 8.82812C100.486 8.82812 100.724 9.10082 100.724 9.47577Z" fill="url(#paint5_linear_1_53242)"/>
<path d="M14.6356 54.3324C14.9138 54.3324 15.1393 54.0424 15.1393 53.6847C15.1393 53.3271 14.9138 53.0371 14.6356 53.0371C14.3574 53.0371 14.1318 53.3271 14.1318 53.6847C14.1318 54.0424 14.3574 54.3324 14.6356 54.3324Z" fill="url(#paint6_linear_1_53242)"/>
<path d="M11.9313 53.4469C13.0735 53.4469 13.9994 52.7754 13.9994 51.9471C13.9994 51.1187 13.0735 50.4473 11.9313 50.4473C10.7892 50.4473 9.86328 51.1187 9.86328 51.9471C9.86328 52.7754 10.7892 53.4469 11.9313 53.4469Z" fill="url(#paint7_linear_1_53242)"/>
<g style="mix-blend-mode:color-dodge" opacity="0.9" filter="url(#filter0_f_1_53242)">
<circle cx="54.6137" cy="29.6626" r="20.6137" fill="#9788AF" fill-opacity="0.37"/>
</g>
</g>
<defs>
<filter id="filter0_f_1_53242" x="15.9001" y="-9.05103" width="77.4272" height="77.4273" filterUnits="userSpaceOnUse" color-interpolation-filters="sRGB">
<feFlood flood-opacity="0" result="BackgroundImageFix"/>
<feBlend mode="normal" in="SourceGraphic" in2="BackgroundImageFix" result="shape"/>
<feGaussianBlur stdDeviation="9.04993" result="effect1_foregroundBlur_1_53242"/>
</filter>
<linearGradient id="paint0_linear_1_53242" x1="6.76126" y1="47.4493" x2="5.04601" y2="46.4062" gradientUnits="userSpaceOnUse">
<stop stop-color="#0058FF"/>
<stop offset="1" stop-color="#021DA1"/>
</linearGradient>
<linearGradient id="paint1_linear_1_53242" x1="99.2132" y1="7.63484" x2="97.4979" y2="6.59175" gradientUnits="userSpaceOnUse">
<stop stop-color="#0058FF"/>
<stop offset="1" stop-color="#0220B0"/>
</linearGradient>
<linearGradient id="paint2_linear_1_53242" x1="7.76864" y1="50.1065" x2="6.68029" y2="49.4535" gradientUnits="userSpaceOnUse">
<stop stop-color="#0058FF"/>
<stop offset="1" stop-color="#021DA1"/>
</linearGradient>
<linearGradient id="paint3_linear_1_53242" x1="9.70414" y1="50.3791" x2="8.9867" y2="49.9424" gradientUnits="userSpaceOnUse">
<stop stop-color="#0058FF"/>
<stop offset="1" stop-color="#021DA1"/>
</linearGradient>
<linearGradient id="paint4_linear_1_53242" x1="4.34828" y1="45.2678" x2="3.63084" y2="44.8311" gradientUnits="userSpaceOnUse">
<stop stop-color="#0058FF"/>
<stop offset="1" stop-color="#021DA1"/>
</linearGradient>
<linearGradient id="paint5_linear_1_53242" x1="100.539" y1="9.81663" x2="99.8213" y2="9.37989" gradientUnits="userSpaceOnUse">
<stop stop-color="#0058FF"/>
<stop offset="1" stop-color="#0220B0"/>
</linearGradient>
<linearGradient id="paint6_linear_1_53242" x1="14.9538" y1="54.0256" x2="14.2363" y2="53.5889" gradientUnits="userSpaceOnUse">
<stop stop-color="#0058FF"/>
<stop offset="1" stop-color="#021DA1"/>
</linearGradient>
<linearGradient id="paint7_linear_1_53242" x1="13.1244" y1="53.1401" x2="10.5594" y2="51.5585" gradientUnits="userSpaceOnUse">
<stop stop-color="#0058FF"/>
<stop offset="1" stop-color="#021DA1"/>
</linearGradient>
<clipPath id="clip0_1_53242">
<rect width="110" height="61" rx="12" fill="white"/>
</clipPath>
</defs>
</svg>
