<svg width="28" height="28" viewBox="0 0 28 28" fill="none" xmlns="http://www.w3.org/2000/svg">
<g clip-path="url(#clip0_1_53219)">
<path d="M13.3403 13.4581L6.04297 13.8984L9.65918 20.7918C9.68903 20.8487 9.73467 20.8958 9.79062 20.9273C9.84657 20.9589 9.91045 20.9736 9.97456 20.9697L17.0567 20.5424L13.3403 13.4581ZM9.50191 16.5456C9.31531 16.6158 9.10863 16.6104 8.926 16.5304C8.74336 16.4504 8.59925 16.3021 8.52442 16.1173C8.41488 15.9507 8.37483 15.7479 8.4128 15.5521C8.45077 15.3564 8.56377 15.1832 8.72766 15.0696C8.91425 14.9994 9.12093 15.0048 9.30357 15.0848C9.48621 15.1648 9.63032 15.3131 9.70515 15.4979C9.81468 15.6645 9.85474 15.8674 9.81677 16.0631C9.7788 16.2588 9.6658 16.432 9.50191 16.5456ZM11.9916 18.0626C11.805 18.1329 11.5983 18.1274 11.4157 18.0474C11.2331 17.9674 11.0889 17.8192 11.0141 17.6343C10.9046 17.4677 10.8645 17.2649 10.9025 17.0691C10.9405 16.8734 11.0535 16.7003 11.2174 16.5867C11.4039 16.5164 11.6106 16.5218 11.7933 16.6019C11.9759 16.6819 12.12 16.8301 12.1948 17.0149C12.3044 17.1816 12.3444 17.3844 12.3065 17.5801C12.2685 17.7759 12.1555 17.949 11.9916 18.0626ZM14.4813 19.5796C14.2947 19.6499 14.088 19.6445 13.9054 19.5645C13.7228 19.4845 13.5786 19.3362 13.5038 19.1514C13.3943 18.9848 13.3542 18.7819 13.3922 18.5862C13.4302 18.3904 13.5432 18.2173 13.7071 18.1037C13.8936 18.0334 14.1003 18.0389 14.283 18.1189C14.4656 18.1989 14.6097 18.3472 14.6845 18.532C14.7941 18.6986 14.8341 18.9014 14.7962 19.0972C14.7582 19.2929 14.6452 19.4661 14.4813 19.5796Z" fill="white"/>
<path d="M13.3649 12.7883L17.8749 7.03465L10.7277 7.46702C10.6807 7.46988 10.6348 7.48267 10.5931 7.50456C10.5514 7.52645 10.5148 7.55693 10.4857 7.594L6.06761 13.2287L13.3649 12.7883ZM13.378 8.86673C13.7856 8.65288 14.22 8.67796 14.3482 8.92237C14.4764 9.16678 14.2502 9.53842 13.8425 9.75227C13.4349 9.96612 13.0005 9.94104 12.8723 9.69662C12.7441 9.45221 12.9703 9.08057 13.378 8.86673ZM10.131 10.5701C10.5386 10.3562 10.973 10.3813 11.1012 10.6257C11.2294 10.8701 11.0032 11.2418 10.5955 11.4556C10.1879 11.6695 9.75349 11.6444 9.62528 11.4C9.49706 11.1556 9.72331 10.7839 10.131 10.5701Z" fill="white"/>
<path d="M13.9308 13.1488L17.6472 20.2332L22.024 14.6491C22.0637 14.5986 22.0879 14.5377 22.0937 14.4737C22.0996 14.4098 22.0868 14.3455 22.057 14.2886L18.4408 7.39519L13.9308 13.1488ZM18.4857 14.6563C18.2992 14.7266 18.0925 14.7212 17.9098 14.6412C17.7272 14.5612 17.5831 14.4129 17.5083 14.2281C17.3987 14.0615 17.3587 13.8586 17.3966 13.6629C17.4346 13.4672 17.5476 13.294 17.7115 13.1804C17.8981 13.1101 18.1048 13.1156 18.2874 13.1956C18.47 13.2756 18.6142 13.4239 18.689 13.6087C18.7985 13.7753 18.8386 13.9781 18.8006 14.1739C18.7626 14.3696 18.6496 14.5428 18.4857 14.6563Z" fill="white"/>
</g>
<defs>
<clipPath id="clip0_1_53219">
<rect width="20" height="20" fill="white" transform="translate(0.5 9.78906) rotate(-27.6811)"/>
</clipPath>
</defs>
</svg>
