<svg width="8" height="9" viewBox="0 0 8 9" fill="none" xmlns="http://www.w3.org/2000/svg">
<path d="M4.78187 3.27915C4.78187 3.27915 5.1532 1.08548 3.63254 0.132812C3.60992 0.509787 3.50804 0.877752 3.33355 1.21267C3.15905 1.5476 2.91586 1.84194 2.61987 2.07648C1.96954 2.64815 0.746868 3.93281 0.759868 5.30281C0.755596 5.88852 0.914973 6.46379 1.22004 6.96379C1.52511 7.4638 1.96375 7.86868 2.48654 8.13281C2.50521 7.8684 2.57649 7.61038 2.69617 7.37387C2.81586 7.13736 2.98155 6.92713 3.18354 6.75548C3.35475 6.62386 3.49803 6.45945 3.60499 6.27184C3.71196 6.08423 3.78047 5.87719 3.80654 5.66281C4.25411 5.90067 4.63229 6.25061 4.90409 6.67842C5.1759 7.10623 5.33203 7.59725 5.3572 8.10348V8.11015C5.85024 7.88382 6.2711 7.52559 6.57329 7.07505C6.87547 6.62451 7.04722 6.09919 7.06954 5.55715C7.17754 4.26948 6.4722 2.51981 5.84687 1.94781C5.6108 2.4749 5.24426 2.93311 4.78187 3.27915Z" fill="#6D7D97"/>
</svg>
