<svg width="58" height="61" viewBox="0 0 58 61" fill="none" xmlns="http://www.w3.org/2000/svg">
<g clip-path="url(#clip0_1_53410)">
<path d="M0 17.4265C0 9.07036 6.77739 2.29297 15.1335 2.29297H42.8665C51.2226 2.29297 58 9.07036 58 17.4265V45.1595C58 53.5156 51.2226 60.293 42.8665 60.293H15.1335C6.77739 60.2829 0 53.5055 0 45.1494" fill="#1C2533"/>
<rect y="2" width="58" height="58" rx="15" fill="#222F41"/>
<path d="M8.27014 49.6702C8.27014 50.4201 7.68684 50.9996 6.99749 50.9996C6.30814 50.9996 5.72485 50.4201 5.72485 49.6702C5.72485 48.9203 6.30814 48.3408 6.99749 48.3408C7.68684 48.3408 8.27014 48.9203 8.27014 49.6702Z" fill="url(#paint0_linear_1_53410)"/>
<path d="M47.7222 9.85671C47.7222 10.6066 47.1389 11.1861 46.4495 11.1861C45.7602 11.1861 45.1769 10.6066 45.1769 9.85671C45.1769 9.10681 45.7602 8.52734 46.4495 8.52734C47.1389 8.52734 47.7222 9.10681 47.7222 9.85671Z" fill="url(#paint1_linear_1_53410)"/>
<path d="M9.06554 52.6011C9.06554 53.0783 8.69435 53.4873 8.27014 53.4873C7.84592 53.4873 7.47473 53.0783 7.47473 52.6011C7.47473 52.1239 7.84592 51.7148 8.27014 51.7148C8.69435 51.7148 9.06554 52.1239 9.06554 52.6011Z" fill="url(#paint2_linear_1_53410)"/>
<path d="M10.8685 53.0439C10.8685 53.3847 10.6298 53.6915 10.3647 53.6915C10.0996 53.6915 9.86095 53.4188 9.86095 53.0439C9.86095 52.6689 10.0996 52.3962 10.3647 52.3962C10.6298 52.3962 10.8685 52.6689 10.8685 53.0439Z" fill="url(#paint3_linear_1_53410)"/>
<path d="M5.53925 47.9318C5.53925 48.2727 5.30063 48.5795 5.03549 48.5795C4.77036 48.5795 4.53174 48.3068 4.53174 47.9318C4.53174 47.5569 4.77036 47.2842 5.03549 47.2842C5.30063 47.2842 5.53925 47.5569 5.53925 47.9318Z" fill="url(#paint4_linear_1_53410)"/>
<path d="M48.7297 12.4824C48.7297 12.8232 48.4911 13.13 48.2259 13.13C47.9608 13.13 47.7222 12.8573 47.7222 12.4824C47.7222 12.1074 47.9608 11.8347 48.2259 11.8347C48.4911 11.8347 48.7297 12.1074 48.7297 12.4824Z" fill="url(#paint5_linear_1_53410)"/>
<path d="M15.6409 57.3387C15.9191 57.3387 16.1446 57.0488 16.1446 56.6911C16.1446 56.3334 15.9191 56.0435 15.6409 56.0435C15.3627 56.0435 15.1371 56.3334 15.1371 56.6911C15.1371 57.0488 15.3627 57.3387 15.6409 57.3387Z" fill="url(#paint6_linear_1_53410)"/>
<path d="M12.9365 56.4525C14.0787 56.4525 15.0046 55.781 15.0046 54.9527C15.0046 54.1244 14.0787 53.4529 12.9365 53.4529C11.7944 53.4529 10.8685 54.1244 10.8685 54.9527C10.8685 55.781 11.7944 56.4525 12.9365 56.4525Z" fill="url(#paint7_linear_1_53410)"/>
<g style="mix-blend-mode:soft-light" opacity="0.2">
<path d="M1.45854 51.3218C1.76021 38.129 20.212 55.0725 32.3389 55.0725C44.4658 55.0725 50.1271 41.7188 54.9235 43.6595C59.72 45.6003 54.6621 56.5004 45.9741 58.8333C37.2862 61.1661 16.039 60.1003 10.5688 59.2858C5.09862 58.4713 1.44849 51.3218 1.44849 51.3218H1.45854Z" fill="white"/>
</g>
<g style="mix-blend-mode:soft-light">
<path d="M55.888 52.5586C55.888 52.5586 55.8478 52.639 55.8076 52.6994C55.8076 52.7094 55.7975 52.7295 55.7774 52.7497C55.6266 53.001 55.3652 53.4033 54.9831 53.896C54.4903 54.5496 53.7764 55.3741 52.8613 56.1987C50.1966 58.5517 46.6973 59.9795 42.8662 59.9795H15.1432C9.98479 59.9795 5.42965 57.3953 2.70462 53.4535C2.69456 53.4435 2.69456 53.4234 2.67445 53.4133C2.56384 53.1921 2.49345 53.0614 2.4834 53.001C2.89567 53.3329 11.3021 59.8689 31.2018 59.8689C49.7039 59.8689 54.9931 53.8055 55.8277 52.6592C55.8579 52.6189 55.878 52.5888 55.8981 52.5586H55.888Z" fill="#A2A9B5"/>
</g>
<g opacity="0.6" filter="url(#filter0_f_1_53410)">
<circle cx="28.6584" cy="30.6684" r="20.6137" fill="#41577E"/>
</g>
</g>
<defs>
<filter id="filter0_f_1_53410" x="-10.0552" y="-8.04517" width="77.4272" height="77.4273" filterUnits="userSpaceOnUse" color-interpolation-filters="sRGB">
<feFlood flood-opacity="0" result="BackgroundImageFix"/>
<feBlend mode="normal" in="SourceGraphic" in2="BackgroundImageFix" result="shape"/>
<feGaussianBlur stdDeviation="9.04993" result="effect1_foregroundBlur_1_53410"/>
</filter>
<linearGradient id="paint0_linear_1_53410" x1="7.76638" y1="50.4542" x2="6.05113" y2="49.4111" gradientUnits="userSpaceOnUse">
<stop stop-color="#405880"/>
<stop offset="1" stop-color="#1A2532"/>
</linearGradient>
<linearGradient id="paint1_linear_1_53410" x1="47.2184" y1="10.6407" x2="45.5032" y2="9.59761" gradientUnits="userSpaceOnUse">
<stop stop-color="#405880"/>
<stop offset="1" stop-color="#1A2532"/>
</linearGradient>
<linearGradient id="paint2_linear_1_53410" x1="8.75069" y1="53.1237" x2="7.64243" y2="52.4919" gradientUnits="userSpaceOnUse">
<stop stop-color="#405880"/>
<stop offset="1" stop-color="#1A2532"/>
</linearGradient>
<linearGradient id="paint3_linear_1_53410" x1="10.6691" y1="53.4258" x2="9.92152" y2="53.0565" gradientUnits="userSpaceOnUse">
<stop stop-color="#405880"/>
<stop offset="1" stop-color="#1A2532"/>
</linearGradient>
<linearGradient id="paint4_linear_1_53410" x1="5.33985" y1="48.3138" x2="4.59231" y2="47.9444" gradientUnits="userSpaceOnUse">
<stop stop-color="#405880"/>
<stop offset="1" stop-color="#1A2532"/>
</linearGradient>
<linearGradient id="paint5_linear_1_53410" x1="48.5303" y1="12.8643" x2="47.7827" y2="12.4949" gradientUnits="userSpaceOnUse">
<stop stop-color="#405880"/>
<stop offset="1" stop-color="#1A2532"/>
</linearGradient>
<linearGradient id="paint6_linear_1_53410" x1="15.9452" y1="57.073" x2="15.1977" y2="56.7037" gradientUnits="userSpaceOnUse">
<stop stop-color="#405880"/>
<stop offset="1" stop-color="#1A2532"/>
</linearGradient>
<linearGradient id="paint7_linear_1_53410" x1="14.186" y1="55.8372" x2="12.0255" y2="53.9448" gradientUnits="userSpaceOnUse">
<stop stop-color="#405880"/>
<stop offset="1" stop-color="#1A2532"/>
</linearGradient>
<clipPath id="clip0_1_53410">
<rect width="58.0002" height="60.293" fill="white" transform="translate(-0.000244141)"/>
</clipPath>
</defs>
</svg>
