<svg width="79" height="79" viewBox="0 0 79 79" fill="none" xmlns="http://www.w3.org/2000/svg">
<rect x="11" y="12.0007" width="58" height="58" rx="5" fill="#222F41"/>
<rect x="12.5085" y="11.512" width="55.3051" height="55.3051" rx="6.53606" stroke="url(#paint0_linear_1_53538)" stroke-width="3.01664"/>
<g style="mix-blend-mode:color-dodge" filter="url(#filter0_f_1_53538)">
<circle cx="39.6583" cy="39.6674" r="20.6137" fill="#9788AF" fill-opacity="0.37"/>
</g>
<path d="M39.6431 67.458C36.8904 67.3564 10.3109 39.4119 10.0063 37.2797C9.92737 36.7044 10.593 35.3957 11.6196 33.7937C11.755 33.5794 11.8904 33.3763 12.037 33.1507C12.037 33.1507 12.037 33.1507 12.0596 33.1281C14.8461 28.9765 19.6521 23.2342 20.4644 22.8506C21.0849 22.5685 35.5027 19.0261 40.6471 19.0261C45.7915 19.0261 58.8782 21.8014 59.9838 22.0045C61.6309 22.3203 66.9219 29.6421 69.6408 33.7824C69.8664 34.1322 70.0695 34.4368 70.25 34.7301C70.8141 35.6213 71.2089 36.2757 71.3217 36.5464C71.9761 38.0017 42.3845 67.5369 39.6318 67.4354L39.6431 67.458Z" fill="url(#paint1_linear_1_53538)"/>
<g style="mix-blend-mode:multiply" opacity="0.2">
<path d="M12.2631 36.661C11.8908 39.3122 27.6737 59.2017 40.3993 60.3524C46.9426 60.939 51.4214 50.8758 53.7454 47.0965C56.1484 43.1818 39.3501 42.2229 35.8303 41.6926C32.2879 41.1624 34.5667 48.9467 35.2098 51.4963C35.8303 53.9783 41.0085 55.1854 42.351 55.05C43.6935 54.9259 48.1385 47.0514 45.0699 46.0699C41.9675 45.0884 40.8167 48.879 39.384 46.9386C37.9287 44.9643 48.0257 43.2721 49.5036 46.9386C50.9363 50.4923 46.6832 56.3925 39.6999 55.6028C32.6714 54.8018 28.9598 48.1006 33.5401 39.3235C38.504 29.7906 49.12 40.7563 55.4941 44.8966C61.6425 48.8903 67.0239 35.8488 66.6064 31.4151C66.1777 26.8009 53.9598 19.9417 40.986 19.6259C28.0009 19.2987 13.9666 24.5785 12.2631 36.661Z" fill="#B2FFB0"/>
</g>
<g style="mix-blend-mode:soft-light">
<path d="M20.4762 22.8625C18.3552 23.5168 29.5353 28.3341 31.2275 28.6161C32.9198 28.8981 48.3643 29.1238 50.8801 28.8643C53.4071 28.6048 60.6499 22.9189 60.5822 22.2984C60.5145 21.6892 43.7501 18.6545 40.2641 19.038C36.7894 19.4216 22.1007 22.3548 20.4649 22.8625H20.4762Z" fill="#51964B"/>
</g>
<g style="mix-blend-mode:soft-light">
<path d="M10.7966 37.0769C10.9771 38.4645 24.4134 45.6847 25.2821 45.7976C26.1508 45.9104 32.0511 28.8526 31.2162 28.6157C30.3814 28.3788 21.39 24.1256 20.2844 24.1031C19.1675 24.0805 10.4017 34.1888 10.7966 37.0882V37.0769Z" fill="#ABFF8D"/>
</g>
<g style="mix-blend-mode:multiply" opacity="0.2">
<path d="M26.8268 46.0336C25.2812 45.9998 32.0276 30.4537 32.7496 29.6076C33.4829 28.7615 49.9314 28.8969 51.2401 29.6076C52.5375 30.3184 56.486 43.6983 56.4296 44.5557C56.3619 45.4131 35.7392 46.2141 26.8268 46.0223V46.0336Z" fill="#3CFF1D"/>
</g>
<path opacity="0.4" d="M71.3326 36.5578C71.1972 39.5362 58.3588 44.5677 57.3998 44.5677C56.4409 44.5677 52.7405 29.9243 52.8195 29.033C52.8985 28.1305 59.69 24.2045 60.931 24.0014C62.1719 23.7984 71.3439 36.5691 71.3439 36.5691L71.3326 36.5578Z" fill="#234A11"/>
<g style="mix-blend-mode:multiply" opacity="0.4">
<path d="M26.8266 46.0358C25.1231 45.923 38.221 66.2862 39.383 67.0421C40.5337 67.798 56.2264 47.2881 56.328 45.9343C56.4295 44.5692 45.4638 47.2316 26.8266 46.0358Z" fill="#23FB00"/>
</g>
<g style="mix-blend-mode:multiply" opacity="0.2">
<path d="M26.8274 46.0345C26.1054 46.4406 33.6866 58.8165 35.1645 60.3508C36.6199 61.8626 44.0883 51.822 48.7363 50.5246C53.4407 49.2159 56.137 47.2642 55.855 45.7976C55.5729 44.3084 48.6799 45.9217 40.6248 46.3165C32.5923 46.7114 27.5607 45.6284 26.8274 46.0458V46.0345Z" fill="#66C05E"/>
</g>
<g style="mix-blend-mode:soft-light">
<path d="M68.2194 40.6757C67.7569 39.4685 56.9153 45.2785 55.821 46.9369C54.7379 48.5728 42.3508 65.8562 42.0574 66.0705C41.7641 66.2849 59.2957 51.066 68.2194 40.6757Z" fill="#7DFF40"/>
</g>
<g style="mix-blend-mode:soft-light">
<path d="M11.0448 38.8824C11.733 38.0815 24.7407 45.595 26.7601 48.1333C28.7231 50.604 38.1545 66.669 38.1545 66.669C38.1545 66.669 18.5922 49.6564 11.0448 38.8824Z" fill="#8BFF81"/>
</g>
<path d="M20.4748 22.8614C20.4748 22.8614 28.135 28.4345 31.2261 28.615C34.3173 28.7955 47.7988 29.856 50.8787 28.8632C53.9811 27.8591 65.8606 20.0974 41.5714 19.6349C30.6057 19.4205 20.4748 22.8614 20.4748 22.8614Z" fill="#E1FFE2" fill-opacity="0.4"/>
<g style="mix-blend-mode:soft-light" opacity="0.5">
<path d="M10.0069 37.281C10.6499 38.3753 23.195 44.8848 25.1693 45.1781C27.1323 45.4714 31.4306 30.7941 31.3516 30.0269C31.2614 29.2598 24.5601 26.0219 23.7478 25.6497C22.9356 25.2661 29.7609 28.8649 30.2912 31.2904C30.8101 33.6709 25.9026 42.7751 22.7776 42.651C19.6526 42.5269 10.0069 37.281 10.0069 37.281Z" fill="#FFF7F2"/>
</g>
<path d="M24.662 25.6495C24.662 25.6495 30.0771 24.589 36.5415 25.6269C42.9494 26.6422 42.3289 28.9775 42.3289 28.9775C42.3289 28.9775 33.5518 29.1355 31.0135 28.594C28.4639 28.0412 24.662 25.6607 24.662 25.6607V25.6495Z" fill="white"/>
<path d="M50.3261 28.9984C50.3036 28.5923 52.966 27.9379 53.485 28.2538C53.9927 28.5584 53.485 30.9276 52.7178 31.0404C51.9507 31.1419 50.3374 29.0097 50.3374 29.0097L50.3261 28.9984Z" fill="#E2FFDF"/>
<path d="M29.7943 28.1751C28.5758 28.1075 30.6855 32.214 31.0804 32.2027C31.4752 32.1914 35.2094 29.2131 34.9387 28.9874C34.6566 28.7618 29.7943 28.1751 29.7943 28.1751Z" fill="#E2FFDF"/>
<g style="mix-blend-mode:soft-light">
<path d="M49.0633 59.2019C46.9198 59.4501 54.298 49.3756 57.0845 47.3788C59.9275 45.3481 59.0814 50.0976 57.863 51.4853C56.6558 52.8616 49.0633 59.2019 49.0633 59.2019Z" fill="#FFF7F2"/>
</g>
<path d="M55.0532 45.7969C54.444 45.041 56.5311 43.6872 56.7793 43.6308C57.0275 43.5631 59.4079 44.0821 59.5433 44.2513C59.6787 44.4092 56.2491 46.4399 55.8655 46.4399C55.4819 46.4399 55.0532 45.8082 55.0532 45.8082V45.7969Z" fill="#E6FFDD"/>
<g style="mix-blend-mode:multiply" opacity="0.4">
<path d="M10.9314 38.0256C9.84838 38.082 22.5514 52.3307 25.5636 54.5306C28.5194 56.6854 28.903 50.3564 26.7256 47.7052C24.5032 44.9977 10.9314 38.0256 10.9314 38.0256Z" fill="#84EF72"/>
</g>
<path d="M10.2207 36.3555C10.0064 37.6304 22.5064 45.4936 24.616 45.0311C26.737 44.5685 31.0804 32.1926 31.0804 32.1926C31.0804 32.1926 26.658 45.0311 26.7482 45.5387C26.7934 45.7869 33.8669 46.1254 40.8164 46.069C47.9238 46.0126 54.9522 45.55 54.9522 45.55C54.9522 45.55 41.0533 47.2423 26.8385 46.0464C26.8385 46.0464 27.9441 48.7653 29.6815 51.9354C29.6815 51.9354 26.1503 47.2761 23.973 45.8095C21.7618 44.3203 11.4955 38.7247 10.9879 38.4201C10.4689 38.1155 10.232 36.3668 10.232 36.3668L10.2207 36.3555Z" fill="#C7FFC9"/>
<path d="M52.1083 30.8276C52.4016 31.6399 55.7974 40.8569 55.7974 40.8569L53.0672 30.7825L52.1196 30.8276H52.1083Z" fill="#C7FFC9"/>
<path d="M29.6933 34.2897C30.6635 31.7626 27.5159 28.4796 23.5223 26.5618C19.4609 24.6101 18.4568 38.9151 21.5818 41.2504C24.6391 43.5406 29.6933 34.2897 29.6933 34.2897Z" fill="#ABFF8D"/>
<g style="mix-blend-mode:soft-light">
<path d="M53.598 30.4428C56.3845 26.2686 65.0149 34.6959 67.1359 37.8661C69.2004 40.9459 60.3105 44.3304 58.2347 43.1346C56.1363 41.9274 53.598 30.4428 53.598 30.4428Z" fill="#ABFF8D"/>
</g>
<path opacity="0.2" d="M30.5511 34.2566C27.6292 40.2133 35.7745 34.9673 41.5394 36.0617C47.2479 37.1447 52.8548 43.688 54.6937 43.3834C56.5439 43.0788 51.7154 31.1993 50.26 30.1952C48.7934 29.1799 37.2637 29.4958 35.5601 29.8117C33.8679 30.1275 31.668 31.9326 30.5286 34.2453L30.5511 34.2566Z" fill="#3CB71C"/>
<path d="M69.787 35.4747C69.4147 35.1926 68.422 38.3176 66.5154 39.9534C64.6426 41.5554 59.5321 44.2517 59.5321 44.2517C59.5321 44.2517 66.2897 41.5329 67.8015 40.1114C69.3358 38.6673 69.787 35.4859 69.787 35.4859V35.4747Z" fill="#E6FFDD"/>
<path opacity="0.7" d="M12.037 33.1635C12.037 33.1635 11.9693 37.1346 12.4432 38.3192C12.917 39.4812 19.1219 42.9447 19.1219 42.9447C19.1219 42.9447 14.4738 39.0864 13.7518 36.3336C13.0072 33.5132 13.1877 31.5051 13.1877 31.5051L12.037 33.1635Z" fill="#E6FFDD"/>
<path opacity="0.4" d="M11.0448 38.8818C11.0448 38.8818 24.0187 45.2559 26.7826 48.4261C29.4564 51.5059 28.5426 55.6914 26.2186 54.8904C23.8833 54.0894 11.0448 38.8818 11.0448 38.8818Z" fill="#66C05E"/>
<path opacity="0.4" d="M26.9963 46.4293C26.4774 46.3616 31.3397 56.154 33.6073 57.2371C35.8411 58.2975 40.9065 54.1911 46.0396 51.4948C51.3081 48.7195 52.6168 50.344 53.6772 48.5503C54.749 46.7226 55.0536 45.8088 55.0536 45.8088C55.0536 45.8088 40.9967 48.1893 26.9963 46.4406V46.4293Z" fill="#4EB71C"/>
<g style="mix-blend-mode:multiply" opacity="0.4">
<path d="M56.1824 46.3187C55.8552 46.4316 53.362 50.4591 53.6553 50.5268C53.9486 50.5945 56.9608 47.1197 58.1228 46.849C59.2961 46.5782 59.4991 49.2632 59.7473 49.0038C59.9955 48.7443 66.5501 41.5918 66.8773 41.2195C67.2045 40.8359 60.1648 44.0173 58.9351 44.7506C57.7054 45.4839 56.1824 46.33 56.1824 46.33V46.3187Z" fill="#47C033"/>
</g>
<g style="mix-blend-mode:multiply" opacity="0.5">
<path d="M70.2496 34.7414C70.2496 34.7414 63.4694 26.3366 62.0254 24.7684C60.5813 23.1777 54.1282 19.6805 43.2754 19.782C32.4112 19.8835 24.1531 22.1624 21.4793 23.5613C18.9184 24.9264 12.4428 32.6656 12.0592 33.1394C14.8458 28.9878 19.6517 23.2454 20.464 22.8619C21.0845 22.5685 35.5023 19.0261 40.6468 19.0261C45.7912 19.0261 58.8778 21.8014 59.9834 22.0045C61.6305 22.3203 66.9216 29.6421 69.6404 33.7824C69.8661 34.1322 70.0691 34.4368 70.2496 34.7301V34.7414Z" fill="#4F842E"/>
</g>
<path d="M24.6273 45.538C23.6796 45.9441 26.5451 47.7492 26.8949 47.941C27.2446 48.1328 26.9738 45.5831 26.7144 45.1883C26.4549 44.7821 24.6273 45.538 24.6273 45.538Z" fill="white"/>
<path d="M30.1216 55.3641C31.3626 53.8749 36.1234 62.9115 35.9654 63.1935C35.7962 63.4755 28.4858 57.3384 30.1216 55.3641Z" fill="white"/>
<g style="mix-blend-mode:multiply" opacity="0.5">
<path d="M39.6431 67.4575C36.8904 67.3559 10.3109 39.4114 10.0063 37.2792C9.92737 36.7039 10.593 35.3952 11.6196 33.7932C11.6309 34.0188 11.9693 38.791 12.6914 40.2914C13.1765 41.2955 21.1638 49.2377 31.1367 60.1244C34.634 63.9376 37.5898 64.8063 39.44 65.0545C41.2112 65.2914 45.2162 63.6443 49.0519 59.1881C58.19 48.5495 66.3466 41.9611 67.9598 39.8966C70.4982 36.6249 69.6972 33.9737 69.6408 33.7932C70.532 35.1583 71.1638 36.1849 71.333 36.5572C71.9874 38.0125 42.3958 67.5477 39.6431 67.4462V67.4575Z" fill="#4F842E"/>
</g>
<g opacity="0.5" filter="url(#filter1_d_1_53538)">
<circle cx="40.1607" cy="41.1761" r="14.0777" fill="url(#paint2_radial_1_53538)"/>
</g>
<g style="mix-blend-mode:soft-light" opacity="0.2">
<path d="M12.4586 59.3257C12.7603 46.1329 31.2121 63.0764 43.339 63.0764C55.4659 63.0764 61.1271 49.7227 65.9236 51.6635C70.7201 53.6042 65.6622 64.5043 56.9742 66.8372C48.2863 69.17 27.0391 68.1042 21.5689 67.2897C16.0987 66.4752 12.4486 59.3257 12.4486 59.3257H12.4586Z" fill="white"/>
</g>
<g style="mix-blend-mode:soft-light">
<path d="M66.8882 60.562C66.8882 60.562 66.848 60.6425 66.8078 60.7028C66.8078 60.7128 66.7977 60.733 66.7776 60.7531C66.6268 61.0045 66.3653 61.4067 65.9832 61.8994C65.4905 62.553 64.7766 63.3775 63.8615 64.2021C61.1968 66.5551 57.6975 67.983 53.8664 67.983H26.1434C20.985 67.983 16.4298 65.3987 13.7048 61.4569C13.6947 61.4469 13.6947 61.4268 13.6746 61.4167C13.564 61.1955 13.4936 61.0648 13.4836 61.0045C13.8959 61.3363 22.3022 67.8723 42.202 67.8723C60.7041 67.8723 65.9933 61.8089 66.8279 60.6626C66.8581 60.6223 66.8782 60.5922 66.8983 60.562H66.8882Z" fill="#49A3F3"/>
</g>
<defs>
<filter id="filter0_f_1_53538" x="0.944679" y="0.95385" width="77.4272" height="77.4273" filterUnits="userSpaceOnUse" color-interpolation-filters="sRGB">
<feFlood flood-opacity="0" result="BackgroundImageFix"/>
<feBlend mode="normal" in="SourceGraphic" in2="BackgroundImageFix" result="shape"/>
<feGaussianBlur stdDeviation="9.04993" result="effect1_foregroundBlur_1_53538"/>
</filter>
<filter id="filter1_d_1_53538" x="22.083" y="27.0984" width="36.1553" height="36.1553" filterUnits="userSpaceOnUse" color-interpolation-filters="sRGB">
<feFlood flood-opacity="0" result="BackgroundImageFix"/>
<feColorMatrix in="SourceAlpha" type="matrix" values="0 0 0 0 0 0 0 0 0 0 0 0 0 0 0 0 0 0 127 0" result="hardAlpha"/>
<feOffset dy="4"/>
<feGaussianBlur stdDeviation="2"/>
<feComposite in2="hardAlpha" operator="out"/>
<feColorMatrix type="matrix" values="0 0 0 0 0 0 0 0 0 0 0 0 0 0 0 0 0 0 0.35 0"/>
<feBlend mode="normal" in2="BackgroundImageFix" result="effect1_dropShadow_1_53538"/>
<feBlend mode="normal" in="SourceGraphic" in2="effect1_dropShadow_1_53538" result="shape"/>
</filter>
<filter id="filter2_d_1_53538" x="35.591" y="34.4258" width="8.27819" height="14.6943" filterUnits="userSpaceOnUse" color-interpolation-filters="sRGB">
<feFlood flood-opacity="0" result="BackgroundImageFix"/>
<feColorMatrix in="SourceAlpha" type="matrix" values="0 0 0 0 0 0 0 0 0 0 0 0 0 0 0 0 0 0 127 0" result="hardAlpha"/>
<feOffset dy="1.00555"/>
<feGaussianBlur stdDeviation="1.00555"/>
<feComposite in2="hardAlpha" operator="out"/>
<feColorMatrix type="matrix" values="0 0 0 0 0 0 0 0 0 0 0 0 0 0 0 0 0 0 0.2 0"/>
<feBlend mode="normal" in2="BackgroundImageFix" result="effect1_dropShadow_1_53538"/>
<feBlend mode="normal" in="SourceGraphic" in2="effect1_dropShadow_1_53538" result="shape"/>
</filter>
<linearGradient id="paint0_linear_1_53538" x1="16.8593" y1="10.0036" x2="71.7119" y2="9.87915" gradientUnits="userSpaceOnUse">
<stop stop-color="#A66BF3"/>
<stop offset="0.385417" stop-color="#49B2C9"/>
<stop offset="0.932292" stop-color="#4956C9"/>
</linearGradient>
<linearGradient id="paint1_linear_1_53538" x1="40.6697" y1="67.458" x2="40.6697" y2="19.0261" gradientUnits="userSpaceOnUse">
<stop stop-color="#57A344"/>
<stop offset="1" stop-color="#4C6C43"/>
</linearGradient>
<radialGradient id="paint2_radial_1_53538" cx="0" cy="0" r="1" gradientUnits="userSpaceOnUse" gradientTransform="translate(44.5 33.0046) rotate(133.727) scale(15.9138)">
<stop stop-color="#2F4B70"/>
<stop offset="1" stop-color="#2B3E58"/>
</radialGradient>
</defs>
</svg>
