<svg width="58" height="61" viewBox="0 0 58 61" fill="none" xmlns="http://www.w3.org/2000/svg">
<path d="M0.000152588 17.4291C0.000152588 9.07305 6.77754 2.29565 15.1336 2.29565H42.8667C51.2228 2.29565 58.0002 9.07305 58.0002 17.4291V45.1622C58.0002 53.5183 51.2228 60.2957 42.8667 60.2957H15.1336C6.77754 60.2856 0.000152588 53.5082 0.000152588 45.1521" fill="#1C2533"/>
<rect x="-9.15527e-05" y="-0.000244141" width="58" height="57" rx="15" fill="#222F41"/>
<path d="M8.27029 46.6739C8.27029 47.4238 7.687 48.0032 6.99765 48.0032C6.30829 48.0032 5.725 47.4238 5.725 46.6739C5.725 45.924 6.30829 45.3445 6.99765 45.3445C7.687 45.3445 8.27029 45.924 8.27029 46.6739Z" fill="url(#paint0_linear_1_53393)"/>
<path d="M47.7223 6.86037C47.7223 7.61027 47.139 8.18974 46.4497 8.18974C45.7603 8.18974 45.177 7.61027 45.177 6.86037C45.177 6.11047 45.7603 5.53101 46.4497 5.53101C47.139 5.53101 47.7223 6.11047 47.7223 6.86037Z" fill="url(#paint1_linear_1_53393)"/>
<path d="M9.06569 49.6048C9.06569 50.082 8.6945 50.491 8.27029 50.491C7.84607 50.491 7.47488 50.082 7.47488 49.6048C7.47488 49.1275 7.84607 48.7185 8.27029 48.7185C8.6945 48.7185 9.06569 49.1275 9.06569 49.6048Z" fill="url(#paint2_linear_1_53393)"/>
<path d="M10.8686 50.0475C10.8686 50.3884 10.63 50.6952 10.3649 50.6952C10.0997 50.6952 9.8611 50.4225 9.8611 50.0475C9.8611 49.6726 10.0997 49.3999 10.3649 49.3999C10.63 49.3999 10.8686 49.6726 10.8686 50.0475Z" fill="url(#paint3_linear_1_53393)"/>
<path d="M5.5394 44.9355C5.5394 45.2763 5.30078 45.5831 5.03565 45.5831C4.77051 45.5831 4.53189 45.3104 4.53189 44.9355C4.53189 44.5605 4.77051 44.2878 5.03565 44.2878C5.30078 44.2878 5.5394 44.5605 5.5394 44.9355Z" fill="url(#paint4_linear_1_53393)"/>
<path d="M48.7298 9.48602C48.7298 9.82688 48.4912 10.1337 48.2261 10.1337C47.961 10.1337 47.7223 9.86097 47.7223 9.48602C47.7223 9.11107 47.961 8.83838 48.2261 8.83838C48.4912 8.83838 48.7298 9.11107 48.7298 9.48602Z" fill="url(#paint5_linear_1_53393)"/>
<path d="M15.641 54.3424C15.9192 54.3424 16.1448 54.0524 16.1448 53.6948C16.1448 53.3371 15.9192 53.0471 15.641 53.0471C15.3628 53.0471 15.1373 53.3371 15.1373 53.6948C15.1373 54.0524 15.3628 54.3424 15.641 54.3424Z" fill="url(#paint6_linear_1_53393)"/>
<path d="M12.9367 53.4561C14.0788 53.4561 15.0047 52.7847 15.0047 51.9563C15.0047 51.128 14.0788 50.4565 12.9367 50.4565C11.7945 50.4565 10.8686 51.128 10.8686 51.9563C10.8686 52.7847 11.7945 53.4561 12.9367 53.4561Z" fill="url(#paint7_linear_1_53393)"/>
<g style="mix-blend-mode:soft-light" opacity="0.2">
<path d="M1.45869 48.3255C1.76036 35.1327 20.2122 52.0762 32.3391 52.0762C44.466 52.0762 50.1272 38.7225 54.9237 40.6632C59.7201 42.6039 54.6622 53.5041 45.9743 55.8369C37.2864 58.1698 16.0391 57.1039 10.569 56.2894C5.09878 55.4749 1.44864 48.3255 1.44864 48.3255H1.45869Z" fill="white"/>
</g>
<g style="mix-blend-mode:soft-light">
<path d="M55.8882 49.5623C55.8882 49.5623 55.848 49.6427 55.8078 49.703C55.8078 49.7131 55.7977 49.7332 55.7776 49.7533C55.6268 50.0047 55.3653 50.4069 54.9832 50.8996C54.4905 51.5532 53.7765 52.3778 52.8615 53.2023C50.1968 55.5553 46.6975 56.9832 42.8664 56.9832H15.1434C9.98494 56.9832 5.42981 54.3989 2.70477 50.4572C2.69472 50.4471 2.69472 50.427 2.67461 50.417C2.56399 50.1958 2.49361 50.065 2.48355 50.0047C2.89583 50.3365 11.3022 56.8726 31.202 56.8726C49.7041 56.8726 54.9933 50.8091 55.8279 49.6628C55.858 49.6226 55.8781 49.5924 55.8983 49.5623H55.8882Z" fill="#A2A9B5"/>
</g>
<g filter="url(#filter0_f_1_53393)">
<circle cx="28.6583" cy="29.6674" r="20.6137" fill="#47669C"/>
</g>
<defs>
<filter id="filter0_f_1_53393" x="-10.0553" y="-9.04615" width="77.4272" height="77.4273" filterUnits="userSpaceOnUse" color-interpolation-filters="sRGB">
<feFlood flood-opacity="0" result="BackgroundImageFix"/>
<feBlend mode="normal" in="SourceGraphic" in2="BackgroundImageFix" result="shape"/>
<feGaussianBlur stdDeviation="9.04993" result="effect1_foregroundBlur_1_53393"/>
</filter>
<linearGradient id="paint0_linear_1_53393" x1="7.76654" y1="47.4578" x2="6.05128" y2="46.4148" gradientUnits="userSpaceOnUse">
<stop stop-color="#405880"/>
<stop offset="1" stop-color="#1A2532"/>
</linearGradient>
<linearGradient id="paint1_linear_1_53393" x1="47.2186" y1="7.64436" x2="45.5033" y2="6.60127" gradientUnits="userSpaceOnUse">
<stop stop-color="#405880"/>
<stop offset="1" stop-color="#1A2532"/>
</linearGradient>
<linearGradient id="paint2_linear_1_53393" x1="8.75084" y1="50.1274" x2="7.64258" y2="49.4956" gradientUnits="userSpaceOnUse">
<stop stop-color="#405880"/>
<stop offset="1" stop-color="#1A2532"/>
</linearGradient>
<linearGradient id="paint3_linear_1_53393" x1="10.6692" y1="50.4295" x2="9.92167" y2="50.0601" gradientUnits="userSpaceOnUse">
<stop stop-color="#405880"/>
<stop offset="1" stop-color="#1A2532"/>
</linearGradient>
<linearGradient id="paint4_linear_1_53393" x1="5.34" y1="45.3174" x2="4.59246" y2="44.9481" gradientUnits="userSpaceOnUse">
<stop stop-color="#405880"/>
<stop offset="1" stop-color="#1A2532"/>
</linearGradient>
<linearGradient id="paint5_linear_1_53393" x1="48.5304" y1="9.86796" x2="47.7829" y2="9.4986" gradientUnits="userSpaceOnUse">
<stop stop-color="#405880"/>
<stop offset="1" stop-color="#1A2532"/>
</linearGradient>
<linearGradient id="paint6_linear_1_53393" x1="15.9454" y1="54.0767" x2="15.1978" y2="53.7073" gradientUnits="userSpaceOnUse">
<stop stop-color="#405880"/>
<stop offset="1" stop-color="#1A2532"/>
</linearGradient>
<linearGradient id="paint7_linear_1_53393" x1="14.1861" y1="52.8408" x2="12.0256" y2="50.9484" gradientUnits="userSpaceOnUse">
<stop stop-color="#405880"/>
<stop offset="1" stop-color="#1A2532"/>
</linearGradient>
</defs>
</svg>
