<svg width="79" height="79" viewBox="0 0 79 79" fill="none" xmlns="http://www.w3.org/2000/svg">
<rect x="11" y="12.0007" width="58" height="58" rx="5" fill="#222F41"/>
<rect x="12.5085" y="11.512" width="55.3051" height="55.3051" rx="6.53606" stroke="url(#paint0_linear_1_53819)" stroke-width="3.01664"/>
<g style="mix-blend-mode:color-dodge" filter="url(#filter0_f_1_53819)">
<circle cx="39.6583" cy="39.6674" r="20.6137" fill="#9788AF" fill-opacity="0.37"/>
</g>
<path d="M39.8032 67.624C37.0505 67.5224 10.4711 39.578 10.1665 37.4457C10.0875 36.8704 10.7531 35.5617 11.7798 33.9597C11.9151 33.7454 12.0505 33.5423 12.1972 33.3167C12.1972 33.3167 12.1972 33.3167 12.2197 33.2941C15.0063 29.1425 19.8123 23.4002 20.6245 23.0166C21.245 22.7346 35.6629 19.1921 40.8073 19.1921C45.9517 19.1921 59.0383 21.9674 60.1439 22.1705C61.791 22.4864 67.0821 29.8081 69.8009 33.9484C70.0266 34.2982 70.2296 34.6028 70.4102 34.8961C70.9742 35.7873 71.3691 36.4417 71.4819 36.7124C72.1362 38.1678 42.5446 67.7029 39.7919 67.6014L39.8032 67.624Z" fill="url(#paint1_linear_1_53819)"/>
<g style="mix-blend-mode:multiply" opacity="0.2">
<path d="M12.4232 36.8271C12.0509 39.4782 27.8339 59.3677 40.5595 60.5184C47.1028 61.105 51.5816 51.0419 53.9056 47.2625C56.3086 43.3478 39.5103 42.3889 35.9904 41.8587C32.448 41.3284 34.7269 49.1127 35.37 51.6623C35.9904 54.1443 41.1687 55.3514 42.5112 55.216C43.8537 55.0919 48.2986 47.2174 45.2301 46.2359C42.1276 45.2544 40.9769 49.045 39.5441 47.1046C38.0888 45.1303 48.1858 43.4381 49.6637 47.1046C51.0965 50.6583 46.8433 56.5586 39.86 55.7688C32.8316 54.9678 29.12 48.2666 33.7003 39.4895C38.6642 29.9566 49.2801 40.9223 55.6542 45.0626C61.8027 49.0563 67.184 36.0148 66.7666 31.5811C66.3379 26.967 54.1199 20.1078 41.1461 19.7919C28.161 19.4647 14.1267 24.7445 12.4232 36.8271Z" fill="#FFD6B0"/>
</g>
<g style="mix-blend-mode:soft-light">
<path d="M20.6364 23.0285C18.5154 23.6828 29.6955 28.5001 31.3877 28.7821C33.0799 29.0642 48.5244 29.2898 51.0402 29.0303C53.5673 28.7708 60.8101 23.0849 60.7424 22.4644C60.6747 21.8552 43.9103 18.8205 40.4243 19.204C36.9495 19.5876 22.2609 22.5208 20.6251 23.0285H20.6364Z" fill="white"/>
</g>
<g style="mix-blend-mode:soft-light">
<path d="M10.9567 37.2429C11.1372 38.6305 24.5736 45.8508 25.4423 45.9636C26.3109 46.0764 32.2112 29.0186 31.3764 28.7817C30.5415 28.5448 21.5501 24.2916 20.4445 24.2691C19.3276 24.2465 10.5619 34.3548 10.9567 37.2542V37.2429Z" fill="#FFC48D"/>
</g>
<g style="mix-blend-mode:multiply" opacity="0.2">
<path d="M26.9869 46.1996C25.4414 46.1658 32.1877 30.6198 32.9098 29.7736C33.6431 28.9275 50.0916 29.0629 51.4003 29.7736C52.6977 30.4844 56.6462 43.8643 56.5898 44.7217C56.5221 45.5791 35.8994 46.3801 26.9869 46.1883V46.1996Z" fill="#FF971D"/>
</g>
<g style="mix-blend-mode:multiply" opacity="0.4">
<path d="M71.4927 36.7238C71.3574 39.7022 58.5189 44.7338 57.56 44.7338C56.6011 44.7338 52.9007 30.0903 52.9797 29.199C53.0586 28.2965 59.8502 24.3705 61.0911 24.1674C62.3321 23.9644 71.504 36.7351 71.504 36.7351L71.4927 36.7238Z" fill="#C0995E"/>
</g>
<g style="mix-blend-mode:multiply" opacity="0.4">
<path d="M26.9868 46.2018C25.2832 46.089 38.3812 66.4523 39.5432 67.2081C40.6939 67.964 56.3866 47.4541 56.4881 46.1003C56.5896 44.7352 45.6239 47.3977 26.9868 46.2018Z" fill="#FB9700"/>
</g>
<g style="mix-blend-mode:multiply" opacity="0.2">
<path d="M26.9876 46.2005C26.2656 46.6067 33.8468 58.9826 35.3247 60.5169C36.78 62.0286 44.2484 51.988 48.8965 50.6906C53.6009 49.3819 56.2972 47.4302 56.0151 45.9636C55.7331 44.4744 48.84 46.0877 40.785 46.4826C32.7525 46.8774 27.7209 45.7944 26.9876 46.2118V46.2005Z" fill="#C09F5E"/>
</g>
<g style="mix-blend-mode:soft-light">
<path d="M68.3796 40.8417C67.917 39.6345 57.0754 45.4446 55.9811 47.103C54.8981 48.7388 42.5109 66.0222 42.2176 66.2365C41.9243 66.4509 59.4559 51.232 68.3796 40.8417Z" fill="#FFB340"/>
</g>
<g style="mix-blend-mode:soft-light">
<path d="M11.205 39.0485C11.8932 38.2475 24.9008 45.761 26.9202 48.2994C28.8832 50.77 38.3146 66.835 38.3146 66.835C38.3146 66.835 18.7524 49.8224 11.205 39.0485Z" fill="#FFCD81"/>
</g>
<g style="mix-blend-mode:soft-light">
<path d="M20.6349 23.0274C20.6349 23.0274 28.2951 28.6005 31.3863 28.781C34.4775 28.9615 47.9589 30.022 51.0388 29.0292C54.1413 28.0251 66.0208 20.2634 41.7315 19.8009C30.7658 19.5865 20.6349 23.0274 20.6349 23.0274Z" fill="#FFECDB"/>
</g>
<g style="mix-blend-mode:soft-light" opacity="0.5">
<path d="M10.167 37.447C10.8101 38.5413 23.3552 45.0508 25.3295 45.3441C27.2925 45.6374 31.5907 30.9601 31.5118 30.1929C31.4215 29.4258 24.7203 26.188 23.908 25.8157C23.0957 25.4321 29.9211 29.0309 30.4513 31.4565C30.9703 33.8369 26.0628 42.9411 22.9378 42.817C19.8128 42.6929 10.167 37.447 10.167 37.447Z" fill="#FFF7F2"/>
</g>
<path d="M24.8221 25.8155C24.8221 25.8155 30.2373 24.755 36.7016 25.7929C43.1096 26.8083 42.4891 29.1435 42.4891 29.1435C42.4891 29.1435 33.712 29.3015 31.1736 28.76C28.624 28.2072 24.8221 25.8268 24.8221 25.8268V25.8155Z" fill="white"/>
<path d="M50.4863 29.1644C50.4637 28.7583 53.1262 28.104 53.6451 28.4198C54.1528 28.7244 53.6451 31.0936 52.878 31.2064C52.1108 31.3079 50.4976 29.1757 50.4976 29.1757L50.4863 29.1644Z" fill="#FFF6DF"/>
<path d="M29.9544 28.3412C28.736 28.2735 30.8457 32.38 31.2405 32.3687C31.6354 32.3574 35.3696 29.3791 35.0988 29.1534C34.8168 28.9278 29.9544 28.3412 29.9544 28.3412Z" fill="#FFF6DF"/>
<g style="mix-blend-mode:soft-light">
<path d="M49.2235 59.3679C47.08 59.6161 54.4581 49.5416 57.2447 47.5448C60.0877 45.5141 59.2415 50.2637 58.0231 51.6513C56.816 53.0277 49.2235 59.3679 49.2235 59.3679Z" fill="#FFF7F2"/>
</g>
<path d="M55.2134 45.9629C54.6042 45.207 56.6913 43.8532 56.9395 43.7968C57.1877 43.7291 59.5681 44.2481 59.7035 44.4173C59.8388 44.5753 56.4092 46.6059 56.0257 46.6059C55.6421 46.6059 55.2134 45.9742 55.2134 45.9742V45.9629Z" fill="#FFEFDD"/>
<g style="mix-blend-mode:multiply" opacity="0.4">
<path d="M11.0916 38.1917C10.0085 38.2481 22.7116 52.4967 25.7238 54.6966C28.6796 56.8514 29.0631 50.5224 26.8858 47.8712C24.6633 45.1637 11.0916 38.1917 11.0916 38.1917Z" fill="#EFBD72"/>
</g>
<path d="M10.3809 36.5215C10.1665 37.7964 22.6665 45.6596 24.7762 45.1971C26.8971 44.7345 31.2405 32.3586 31.2405 32.3586C31.2405 32.3586 26.8181 45.1971 26.9084 45.7048C26.9535 45.953 34.0271 46.2914 40.9765 46.235C48.0839 46.1786 55.1124 45.716 55.1124 45.716C55.1124 45.716 41.2135 47.4083 26.9987 46.2124C26.9987 46.2124 28.1042 48.9313 29.8416 52.1014C29.8416 52.1014 26.3105 47.4421 24.1331 45.9755C21.9219 44.4863 11.6557 38.8907 11.148 38.5861C10.6291 38.2815 10.3922 36.5328 10.3922 36.5328L10.3809 36.5215Z" fill="#FFE5C7"/>
<path d="M52.2685 30.9936C52.5618 31.8059 55.9575 41.0229 55.9575 41.0229L53.2274 30.9485L52.2797 30.9936H52.2685Z" fill="#FFE5C7"/>
<g style="mix-blend-mode:soft-light">
<path d="M29.8534 34.4557C30.8237 31.9286 27.6761 28.6457 23.6824 26.7278C19.621 24.7761 18.617 39.0811 21.742 41.4164C24.7993 43.7066 29.8534 34.4557 29.8534 34.4557Z" fill="#FFCB8D"/>
</g>
<g style="mix-blend-mode:soft-light">
<path d="M53.7581 30.6088C56.5447 26.4346 65.1751 34.8619 67.296 38.0321C69.3605 41.1119 60.4707 44.4964 58.3948 43.3006C56.2965 42.0934 53.7581 30.6088 53.7581 30.6088Z" fill="#FFCB8D"/>
</g>
<g style="mix-blend-mode:multiply" opacity="0.2">
<path d="M30.7113 34.4226C27.7893 40.3793 35.9346 35.1334 41.6995 36.2277C47.408 37.3107 53.015 43.854 54.8539 43.5494C56.704 43.2448 51.8755 31.3653 50.4202 30.3612C48.9536 29.3459 37.4238 29.6618 35.7203 29.9777C34.028 30.2936 31.8281 32.0986 30.6887 34.4113L30.7113 34.4226Z" fill="#E78224"/>
</g>
<path d="M69.9472 35.6407C69.5749 35.3586 68.5821 38.4836 66.6755 40.1195C64.8028 41.7214 59.6922 44.4177 59.6922 44.4177C59.6922 44.4177 66.4499 41.6989 67.9616 40.2774C69.4959 38.8334 69.9472 35.652 69.9472 35.652V35.6407Z" fill="#FFEFDD"/>
<path d="M12.1972 33.3295C12.1972 33.3295 12.1295 37.3007 12.6033 38.4852C13.0771 39.6472 19.282 43.1107 19.282 43.1107C19.282 43.1107 14.634 39.2524 13.912 36.4997C13.1674 33.6793 13.3479 31.6711 13.3479 31.6711L12.1972 33.3295Z" fill="#FFEFDD"/>
<g style="mix-blend-mode:multiply" opacity="0.4">
<path d="M11.205 39.0479C11.205 39.0479 24.1788 45.4219 26.9428 48.5921C29.6165 51.6719 28.7027 55.8574 26.3787 55.0564C24.0434 54.2554 11.205 39.0479 11.205 39.0479Z" fill="#C09F5E"/>
</g>
<g style="mix-blend-mode:multiply" opacity="0.4">
<path d="M27.1565 46.5953C26.6375 46.5277 31.4999 56.3201 33.7675 57.4031C36.0012 58.4636 41.0667 54.3571 46.1998 51.6608C51.4683 48.8855 52.7769 50.5101 53.8374 48.7163C54.9092 46.8887 55.2138 45.9749 55.2138 45.9749C55.2138 45.9749 41.1569 48.3553 27.1565 46.6066V46.5953Z" fill="#F9A400"/>
</g>
<g style="mix-blend-mode:multiply" opacity="0.4">
<path d="M56.3425 46.4847C56.0153 46.5976 53.5221 50.6251 53.8154 50.6928C54.1088 50.7605 57.1209 47.2857 58.2829 47.015C59.4562 46.7442 59.6593 49.4292 59.9075 49.1698C60.1557 48.9103 66.7103 41.7578 67.0375 41.3855C67.3646 41.0019 60.3249 44.1833 59.0952 44.9166C57.8655 45.6499 56.3425 46.496 56.3425 46.496V46.4847Z" fill="#C08833"/>
</g>
<g style="mix-blend-mode:multiply" opacity="0.5">
<path d="M70.4098 34.9074C70.4098 34.9074 63.6296 26.5026 62.1855 24.9345C60.7415 23.3438 54.2884 19.8465 43.4355 19.948C32.5714 20.0495 24.3132 22.3284 21.6395 23.7273C19.0786 25.0924 12.6029 32.8316 12.2194 33.3054C15.0059 29.1538 19.8119 23.4115 20.6242 23.0279C21.2446 22.7346 35.6625 19.1921 40.8069 19.1921C45.9513 19.1921 59.0379 21.9674 60.1435 22.1705C61.7907 22.4864 67.0817 29.8081 69.8006 33.9484C70.0262 34.2982 70.2293 34.6028 70.4098 34.8961V34.9074Z" fill="#84672E"/>
</g>
<path d="M24.7874 45.704C23.8398 46.1101 26.7053 47.9152 27.055 48.107C27.4047 48.2988 27.134 45.7491 26.8745 45.3543C26.615 44.9481 24.7874 45.704 24.7874 45.704Z" fill="white"/>
<path d="M30.2818 55.5301C31.5227 54.0409 36.2836 63.0775 36.1256 63.3595C35.9564 63.6416 28.6459 57.5044 30.2818 55.5301Z" fill="white"/>
<g style="mix-blend-mode:multiply" opacity="0.5">
<path d="M39.8032 67.6235C37.0505 67.5219 10.4711 39.5775 10.1665 37.4452C10.0875 36.8699 10.7531 35.5612 11.7798 33.9592C11.791 34.1849 12.1295 38.957 12.8515 40.4574C13.3366 41.4615 21.324 49.4037 31.2969 60.2904C34.7942 64.1036 37.75 64.9723 39.6001 65.2205C41.3714 65.4574 45.3763 63.8103 49.2121 59.3541C58.3501 48.7155 66.5067 42.1271 68.12 40.0626C70.6583 36.7909 69.8574 34.1397 69.8009 33.9592C70.6922 35.3243 71.324 36.3509 71.4932 36.7232C72.1475 38.1785 42.5559 67.7137 39.8032 67.6122V67.6235Z" fill="#84672E"/>
</g>
<g opacity="0.5" filter="url(#filter1_d_1_53819)">
<circle cx="40.1607" cy="41.1761" r="14.0777" fill="url(#paint2_radial_1_53819)"/>
</g>
<g style="mix-blend-mode:soft-light" opacity="0.2">
<path d="M12.4586 59.3257C12.7603 46.1329 31.2121 63.0764 43.339 63.0764C55.4659 63.0764 61.1271 49.7227 65.9236 51.6635C70.7201 53.6042 65.6622 64.5043 56.9742 66.8372C48.2863 69.17 27.0391 68.1042 21.5689 67.2897C16.0987 66.4752 12.4486 59.3257 12.4486 59.3257H12.4586Z" fill="white"/>
</g>
<g style="mix-blend-mode:soft-light">
<path d="M66.8882 60.562C66.8882 60.562 66.848 60.6425 66.8078 60.7028C66.8078 60.7128 66.7977 60.733 66.7776 60.7531C66.6268 61.0045 66.3653 61.4067 65.9832 61.8994C65.4905 62.553 64.7766 63.3775 63.8615 64.2021C61.1968 66.5551 57.6975 67.983 53.8664 67.983H26.1434C20.985 67.983 16.4298 65.3987 13.7048 61.4569C13.6947 61.4469 13.6947 61.4268 13.6746 61.4167C13.564 61.1955 13.4936 61.0648 13.4836 61.0045C13.8959 61.3363 22.3022 67.8723 42.202 67.8723C60.7041 67.8723 65.9933 61.8089 66.8279 60.6626C66.8581 60.6223 66.8782 60.5922 66.8983 60.562H66.8882Z" fill="#49A3F3"/>
</g>
<defs>
<filter id="filter0_f_1_53819" x="0.944679" y="0.95385" width="77.4272" height="77.4273" filterUnits="userSpaceOnUse" color-interpolation-filters="sRGB">
<feFlood flood-opacity="0" result="BackgroundImageFix"/>
<feBlend mode="normal" in="SourceGraphic" in2="BackgroundImageFix" result="shape"/>
<feGaussianBlur stdDeviation="9.04993" result="effect1_foregroundBlur_1_53819"/>
</filter>
<filter id="filter1_d_1_53819" x="22.083" y="27.0984" width="36.1553" height="36.1553" filterUnits="userSpaceOnUse" color-interpolation-filters="sRGB">
<feFlood flood-opacity="0" result="BackgroundImageFix"/>
<feColorMatrix in="SourceAlpha" type="matrix" values="0 0 0 0 0 0 0 0 0 0 0 0 0 0 0 0 0 0 127 0" result="hardAlpha"/>
<feOffset dy="4"/>
<feGaussianBlur stdDeviation="2"/>
<feComposite in2="hardAlpha" operator="out"/>
<feColorMatrix type="matrix" values="0 0 0 0 0 0 0 0 0 0 0 0 0 0 0 0 0 0 0.35 0"/>
<feBlend mode="normal" in2="BackgroundImageFix" result="effect1_dropShadow_1_53819"/>
<feBlend mode="normal" in="SourceGraphic" in2="effect1_dropShadow_1_53819" result="shape"/>
</filter>
<filter id="filter2_d_1_53819" x="35.591" y="34.4258" width="8.2782" height="14.6943" filterUnits="userSpaceOnUse" color-interpolation-filters="sRGB">
<feFlood flood-opacity="0" result="BackgroundImageFix"/>
<feColorMatrix in="SourceAlpha" type="matrix" values="0 0 0 0 0 0 0 0 0 0 0 0 0 0 0 0 0 0 127 0" result="hardAlpha"/>
<feOffset dy="1.00555"/>
<feGaussianBlur stdDeviation="1.00555"/>
<feComposite in2="hardAlpha" operator="out"/>
<feColorMatrix type="matrix" values="0 0 0 0 0 0 0 0 0 0 0 0 0 0 0 0 0 0 0.2 0"/>
<feBlend mode="normal" in2="BackgroundImageFix" result="effect1_dropShadow_1_53819"/>
<feBlend mode="normal" in="SourceGraphic" in2="effect1_dropShadow_1_53819" result="shape"/>
</filter>
<linearGradient id="paint0_linear_1_53819" x1="16.8593" y1="10.0036" x2="71.7119" y2="9.87915" gradientUnits="userSpaceOnUse">
<stop stop-color="#A66BF3"/>
<stop offset="0.385417" stop-color="#49B2C9"/>
<stop offset="0.932292" stop-color="#4956C9"/>
</linearGradient>
<linearGradient id="paint1_linear_1_53819" x1="40.8298" y1="67.624" x2="40.8298" y2="19.1921" gradientUnits="userSpaceOnUse">
<stop stop-color="#FFDEB8"/>
<stop offset="1" stop-color="#FF7A00"/>
</linearGradient>
<radialGradient id="paint2_radial_1_53819" cx="0" cy="0" r="1" gradientUnits="userSpaceOnUse" gradientTransform="translate(44.5 33.0046) rotate(133.727) scale(15.9138)">
<stop stop-color="#2F4B70"/>
<stop offset="1" stop-color="#2B3E58"/>
</radialGradient>
</defs>
</svg>
