<svg width="58" height="61" viewBox="0 0 58 61" fill="none" xmlns="http://www.w3.org/2000/svg">
<g clip-path="url(#clip0_1_53443)">
<path d="M0.000152588 17.4291C0.000152588 9.07305 6.77754 2.29565 15.1336 2.29565H42.8667C51.2228 2.29565 58.0002 9.07305 58.0002 17.4291V45.1622C58.0002 53.5183 51.2228 60.2957 42.8667 60.2957H15.1336C6.77754 60.2856 0.000152588 53.5082 0.000152588 45.1521" fill="#1C2533"/>
<rect y="0.00463867" width="58" height="58" rx="15" fill="#222F41"/>
<g clip-path="url(#clip1_1_53443)">
<path opacity="0.12" d="M35.2736 3.27987H48.0539L49.843 4.70189L53.4215 5.5551L55.9776 10.1056L51.8879 14.3716L57 11.2432L54.9552 4.70189L51.1211 3.84868L49.0762 1.00464L38.5964 2.14225H24.0269L19.6816 1.00464H5.36771C4.6009 1.57345 3.42511 2.65418 4.8565 2.42666C6.28789 2.19913 10.2242 2.14225 12.0135 2.14225L7.15695 6.97712V11.2432H3.57848L0 15.7936L1.53363 31.7202V43.0964L0 52.4817L5.36771 61.2982L9.713 62.1514L17.1256 61.2982L27.0942 62.7202L35.2736 62.1514L53.4215 63.0046V59.8762L55.9776 57.0322C56.3184 54.0933 56.7955 46.2817 55.9776 38.5459C55.1596 30.8101 56.3184 26.4114 57 25.179C56.3184 24.6101 54.9552 22.9606 54.9552 20.9129C54.9552 18.8652 55.6368 15.13 55.9776 13.5184C55.1256 14.9404 53.4215 18.4101 53.4215 20.9129C53.4215 23.4156 54.4439 24.7997 54.9552 25.179L54.4439 27.4542V34.5643C54.7848 36.5551 55.2619 41.7312 54.4439 46.5092C53.626 51.2872 48.6502 54.3777 46.2646 55.3257C47.287 55.3257 49.843 55.0413 51.8879 53.9037C53.9327 52.7661 54.4439 51.3441 54.4439 50.7753L54.9552 56.179L52.9103 59.023V62.1514L47.287 61.2982H35.2736L25.5605 59.8762L7.15695 59.023L3.57848 50.7753V43.3808L2.04484 23.4725V15.7936L8.94627 11.2432C8.86107 10.2004 8.74178 7.88721 8.94627 6.97712C9.15075 6.06702 11.7579 4.13308 13.036 3.27987L17.8925 2.14225L22.2377 3.27987H26.583H35.2736Z" fill="#D9D9D9"/>
<path d="M51.7436 18.7386L55.0848 24.3929V42.384C54.9134 44.6971 54.3135 49.6832 53.2855 51.1225C52.2574 52.5618 46.5174 52.5789 43.7759 52.4076H15.2472L8.82185 48.2954V47.5243L10.3639 46.7533V42.384C8.99327 41.2703 6.09773 38.8372 5.48089 38.0148C4.86406 37.1923 5.22388 34.9306 5.48089 33.9025L7.79403 22.5938C8.05104 21.9941 8.77069 20.3835 9.59313 18.7386C10.6212 16.6825 11.9063 10.0001 12.6773 8.45801C13.2942 7.22434 16.8752 5.37383 18.5887 4.60278L21.1588 5.11681L25.5281 4.60278C31.7821 4.94547 44.8042 5.78505 46.8603 6.40189C48.9165 7.01873 50.6299 9.4004 51.2296 10.5141L51.7436 14.1123V18.7386Z" fill="#243349"/>
<path d="M8.68421 3.50464L11.7368 2.00464V2.50464L10.7193 4.00464L7.66667 6.00464V10.0046L3.08772 11.5046L1.05263 14.5046V20.5046L2.07018 34.5046V39.5046L1.5614 46.0046L5.63158 54.0046L10.7193 55.0046L29.5439 55.5046L44.807 56.0046L53.9649 56.5046L56 53.0046L53.9649 59.0046L49.8947 58.0046L35.1404 58.5046L25.9825 58.0046L15.807 57.0046L9.19298 58.0046L3.59649 55.5046L0.54386 52.5046L-1.49123 41.0046L-0.982456 38.5046C-0.473684 37.1713 0.442105 33.4046 0.0350878 29.0046C-0.37193 24.6046 -1.49123 19.1713 -2 17.0046L0.0350878 12.0046L3.08772 9.00464C3.76608 8.33797 5.32632 6.70464 6.14035 5.50464C6.95439 4.30464 8.17544 3.67131 8.68421 3.50464Z" fill="#111D2F"/>
<path d="M49.0584 21.3598C48.697 20.5186 49.5131 20.0114 50.1021 19.9257L50.1025 19.9257C50.3111 19.9421 50.7273 19.9749 51.0617 20.4621C51.3963 20.9497 51.2415 21.6405 50.8695 22.0288C50.4975 22.4171 49.4198 22.2009 49.0584 21.3598Z" fill="#1D2938"/>
<path d="M35.0584 12.3598C34.697 11.5186 35.5131 11.0114 36.1021 10.9257L36.1025 10.9257C36.3111 10.9421 36.7273 10.9749 37.0617 11.4621C37.3963 11.9497 37.2415 12.6405 36.8695 13.0288C36.4975 13.4171 35.4198 13.2009 35.0584 12.3598Z" fill="#1D2938"/>
<path d="M8.05837 37.3598C7.69699 36.5186 8.51305 36.0114 9.10208 35.9257L9.1025 35.9257C9.31114 35.9421 9.72729 35.9749 10.0617 36.4621C10.3963 36.9497 10.2415 37.6405 9.8695 38.0288C9.49755 38.4171 8.41975 38.2009 8.05837 37.3598Z" fill="#1D2938"/>
<path opacity="0.4" d="M42.8895 13.8019C41.5994 10.7239 44.3754 8.92663 46.3952 8.6488L46.3966 8.64894C47.1147 8.72051 48.5469 8.86327 49.7242 10.6533C50.9022 12.4445 50.4092 14.9469 49.1529 16.3369C47.8965 17.727 44.1796 16.8799 42.8895 13.8019Z" fill="#556876"/>
<path opacity="0.4" d="M42.7591 13.3151C41.4689 10.2371 44.245 8.43981 46.2647 8.16198L46.2662 8.16212C46.9842 8.23369 48.4165 8.37645 49.5937 10.1665C50.7718 11.9577 50.2788 14.46 49.0225 15.8501C47.7661 17.2402 44.0492 16.3931 42.7591 13.3151Z" fill="#7F8D98"/>
<path d="M43.0783 12.8725C41.8763 10.0307 44.5102 8.35148 46.4207 8.08293L46.422 8.08305C47.1003 8.14525 48.4532 8.26932 49.5558 9.91956C50.6591 11.5709 50.1791 13.8899 48.9838 15.1836C47.7885 16.4774 44.2803 15.7142 43.0783 12.8725Z" fill="#111821"/>
<path d="M43.2316 13.4547C42.1324 10.8961 44.6146 9.35314 46.4063 9.09253L46.4076 9.09263C47.0422 9.14257 48.308 9.24218 49.3252 10.7242C50.343 12.2072 49.872 14.3086 48.7406 15.4896C47.6092 16.6706 44.3308 16.0132 43.2316 13.4547Z" fill="#1D2938"/>
<path opacity="0.4" d="M5.09153 46.0802C4.22387 42.8756 6.06347 41.5147 7.40525 41.5343L7.4062 41.5347C7.88379 41.7087 8.83638 42.0557 9.62481 43.9811C10.4138 45.9078 10.0942 48.2901 9.26354 49.4714C8.43287 50.6528 5.95918 49.2847 5.09153 46.0802Z" fill="#556876"/>
<path opacity="0.4" d="M5.00324 45.5841C4.13558 42.3795 5.97518 41.0186 7.31696 41.0382L7.31791 41.0386C7.7955 41.2126 8.7481 41.5596 9.53652 43.485C10.3255 45.4117 10.0059 47.794 9.17525 48.9753C8.34459 50.1567 5.8709 48.7886 5.00324 45.5841Z" fill="#7F8D98"/>
<path d="M5.21399 45.1961C4.40569 42.2359 6.15118 40.9702 7.42037 40.9831L7.42127 40.9834C7.87237 41.1425 8.77214 41.4598 9.51047 43.2373C10.2493 45.016 9.93774 47.2204 9.14737 48.3161C8.35699 49.4118 6.0223 48.1563 5.21399 45.1961Z" fill="#111821"/>
<path d="M5.31784 45.7891C4.57877 43.1214 6.22388 41.9674 7.41409 41.9709L7.41494 41.9712C7.83698 42.1119 8.67878 42.3926 9.3598 43.9928C10.0413 45.5941 9.73495 47.5865 8.98668 48.5809C8.2384 49.5753 6.0569 48.4567 5.31784 45.7891Z" fill="#1D2938"/>
</g>
<g style="mix-blend-mode:color-dodge" filter="url(#filter0_f_1_53443)">
<circle cx="28.6587" cy="29.6672" r="20.6137" fill="#A1AABD" fill-opacity="0.13"/>
</g>
<g style="mix-blend-mode:color-dodge" filter="url(#filter1_f_1_53443)">
<circle cx="28.6587" cy="29.6672" r="20.6137" fill="#A1AABD" fill-opacity="0.13"/>
</g>
<g clip-path="url(#clip2_1_53443)">
<path d="M15.971 36.7229C17.1913 37.6 18.412 38.4766 19.6323 39.3537C18.8477 39.9447 17.8251 40.051 16.8603 40.1866C13.4619 40.6646 10.1471 41.7595 7.11681 43.406C8.66997 44.6 10.2227 45.794 11.7758 46.9879C11.4425 48.2699 11.1091 49.5519 10.7762 50.8339C20.5624 51.3787 30.204 53.4142 39.8019 55.444C40.0188 54.0999 39.9854 52.7136 39.7037 51.3821C45.1957 48.9326 50.9454 47.0899 56.8214 45.8959C55.3927 44.1513 53.0371 43.5955 50.8468 43.2055C47.2188 42.5592 43.5641 42.0865 39.9113 41.6138C41.2217 40.1919 42.6645 38.8984 44.2144 37.7568C39.8211 36.9562 35.4429 38.8618 31.0322 39.5552C30.8247 39.5879 30.5805 39.6062 30.4364 39.4499C30.3091 39.3119 30.3167 39.097 30.3392 38.9085C30.4791 37.7438 30.8932 36.6147 31.5365 35.6434C28.4752 35.553 25.4177 35.3255 22.3757 34.961C21.2756 34.8293 19.5497 33.8459 18.52 34.0686C17.9946 34.1825 16.0447 36.7763 15.9715 36.7234L15.971 36.7229Z" fill="#0E1523"/>
<path d="M23.6062 39.6055C24.8303 40.1657 26.0548 40.7264 27.2788 41.2866C27.3412 41.315 27.4084 41.3443 27.476 41.3323C27.5676 41.3155 27.6281 41.2289 27.6793 41.1491C28.1122 40.4725 28.5451 39.7964 28.978 39.1198C29.1151 38.9058 29.2559 38.6351 29.1386 38.4096C29.0747 38.287 28.9489 38.2134 28.8291 38.1485C27.8314 37.6075 26.2182 36.6996 25.0566 36.7396C23.7931 36.7833 23.9682 38.5101 23.6067 39.606L23.6062 39.6055Z" fill="#25364E"/>
<path d="M29.3007 45.7243C29.8285 46.989 30.3562 48.2536 30.8839 49.5188C34.6918 49.1976 36.7029 48.6948 39.3099 47.83C39.5625 47.8079 39.8395 47.7766 40.0128 47.5876C40.1339 47.4554 40.1795 47.2712 40.2208 47.0952C40.3682 46.4668 40.5156 45.8383 40.6631 45.2093C38.3108 44.952 35.9707 44.5813 33.6527 44.099C33.7062 43.532 33.7597 42.9656 33.8137 42.3986C33.2639 42.2472 32.6108 41.9452 32.0441 41.912C31.1957 41.862 31.4173 41.7514 30.9919 42.5939C30.4524 43.6628 29.9646 44.7241 29.3007 45.7243Z" fill="#25364E"/>
<path opacity="0.5" d="M30.8844 49.5183C30.8844 49.5183 30.6131 53.5499 30.7253 53.572C30.8375 53.5941 37.7333 55.0064 37.7333 55.0064L40.0133 47.5872L30.8844 49.5183Z" fill="url(#paint0_linear_1_53443)"/>
<path d="M33.8139 42.3984L36.0103 44.5489L33.6529 44.0988L33.8139 42.3984Z" fill="#1B2539"/>
<path opacity="0.4" d="M27.4767 41.3325L27.6514 43.82L23.1182 41.8788L23.6069 39.6057L27.4767 41.3325Z" fill="url(#paint1_linear_1_53443)"/>
<path d="M29.1387 38.4097L30.5534 43.4746C30.5534 43.4746 30.127 44.3123 30.1669 44.2358C30.2069 44.1594 28.3443 40.1105 28.3443 40.1105L29.1387 38.4097Z" fill="#1B2539"/>
<path opacity="0.5" d="M39.9115 41.6148C39.9115 41.6148 40.4975 41.2691 41.3881 43.821C42.2788 46.3725 42.9915 50.0021 42.9915 50.0021L56.8217 45.8974C56.8217 45.8974 57.848 44.9189 54.8657 43.821C51.8833 42.7232 39.911 41.6148 39.911 41.6148L39.9115 41.6148Z" fill="url(#paint2_linear_1_53443)"/>
<path opacity="0.5" d="M39.7045 51.3816L38.8279 55.2376L39.8026 55.4439C39.8026 55.4439 40.1801 54.6039 40.0139 53.4128C39.8482 52.2221 39.7045 51.3816 39.7045 51.3816Z" fill="url(#paint3_linear_1_53443)"/>
<path opacity="0.5" d="M18.5199 34.0674L18.5199 38.4086L15.9713 36.7222L18.5199 34.0674Z" fill="url(#paint4_linear_1_53443)"/>
<path opacity="0.5" d="M21.8977 34.865L21.9672 41.7125L22.7212 41.9241L23.8729 35.1285L21.8977 34.865Z" fill="url(#paint5_linear_1_53443)"/>
<path opacity="0.5" d="M19.6328 39.3542L19.0778 41.408L16.2908 42.3996L14.6869 40.579L19.6328 39.3542Z" fill="url(#paint6_linear_1_53443)"/>
<path d="M18.55 32.4938C16.9565 31.4883 14.8225 31.7672 13.2346 30.7526C13.7872 30.5449 14.2826 30.2063 14.7718 29.8712C15.5414 29.3441 16.3109 28.8166 17.0809 28.2896C16.8556 28.0674 16.5875 27.891 16.2968 27.7732C16.7415 27.7977 17.1927 27.6794 17.5706 27.4385C17.0786 27.0105 16.4621 26.7662 15.8522 26.5503C11.1814 24.8976 6.17448 24.4913 1.43703 23.0535C3.22919 23.5387 5.1082 23.5204 6.95435 23.6925C8.8296 23.8676 10.6814 24.2407 12.528 24.6177C15.3118 25.1861 18.0937 25.7636 20.8737 26.3503C19.93 26.7345 18.9862 27.1187 18.0425 27.5029C18.4838 27.6279 18.9299 27.7371 19.3787 27.8294C18.0007 28.4074 16.6931 29.1614 15.4958 30.0683C17.5284 30.3915 19.5407 30.8483 21.516 31.4359C20.7709 32.8294 20.1718 34.3052 19.7328 35.8291C19.7093 35.9099 18.721 34.9765 18.6505 34.7207C18.466 34.048 18.574 33.1887 18.5496 32.4943L18.55 32.4938Z" fill="#0E1523"/>
<path d="M41.0181 35.8686C43.8216 35.6123 46.6256 35.356 49.4291 35.0997C49.1239 34.7838 48.8182 34.4678 48.5131 34.1524C52.5274 33.6196 56.5831 33.4133 60.629 33.5354C56.0606 33.1854 51.4687 33.1599 46.897 33.4585C47.1956 34.0028 47.674 34.4414 48.2351 34.6847C45.0767 34.5707 41.9088 34.7164 38.7729 35.1213C39.9429 36.2475 40.8402 37.669 41.3632 39.2236C41.2684 39.0293 44.2137 37.7555 44.2137 37.7555C44.2137 37.7555 43.0385 36.9164 41.0177 35.8686L41.0181 35.8686Z" fill="#0E1523"/>
<path d="M35.3802 57.4531C38.5255 58.6072 42.0887 57.5507 45.3086 58.4629C44.1034 60.0666 42.8981 61.6703 41.6928 63.2744C43.5611 61.7477 45.3086 60.0671 46.913 58.2532C44.2902 57.3016 41.4863 56.8765 38.7067 57.0097C39.5307 56.9703 40.2096 54.6314 40.1946 54.0154C39.4504 54.1192 38.9391 55.0391 38.3569 55.4916C37.4245 56.2153 36.3662 56.8078 35.3806 57.4536L35.3802 57.4531Z" fill="#0E1523"/>
<path d="M60.8244 43.1513C60.3605 42.7262 59.7722 42.4454 59.1557 42.355C62.2297 41.2148 65.3036 40.0747 68.3775 38.9341C65.8736 40.1507 63.3443 41.3144 60.7929 42.4232C61.3949 42.7969 62.0372 43.1032 62.7039 43.334C61.9522 43.8052 61.2 44.2765 60.4483 44.7477C60.1488 44.9353 59.8403 45.1267 59.4943 45.1877C59.2177 45.2368 58.9341 45.1988 58.6557 45.1608C57.9411 45.0632 57.0236 45.0656 56.3828 44.792C56.6466 44.4462 60.5803 42.9291 60.8249 43.1517L60.8244 43.1513Z" fill="#1B2539"/>
<path d="M10.1968 25.7864C10.5208 26.0394 10.8452 26.2923 11.1692 26.5457C8.73002 26.7179 6.28289 26.852 3.84092 26.728C6.46271 26.8559 9.07652 27.166 11.6575 27.6551C11.6715 27.3242 11.596 26.9896 11.4415 26.6982C13.1764 26.5645 14.9206 26.5645 16.655 26.6982C15.5897 26.6164 14.7136 25.6119 13.5867 25.6244C12.4711 25.6369 11.3321 25.7961 10.1963 25.7864L10.1968 25.7864Z" fill="#0E1523"/>
<path d="M39.5948 32.6874C39.8934 32.5037 40.192 32.3195 40.4906 32.1358C39.2675 31.6338 38.0341 31.1582 36.7913 30.7096C36.9256 30.6182 37.1044 30.6706 37.2561 30.7255C38.7177 31.2544 40.1793 31.7838 41.6409 32.3128C41.3705 32.4138 41.0907 32.4888 40.8061 32.5364C41.9311 32.4744 43.0654 32.5979 44.1524 32.9019C43.6303 33.6164 43.5894 35.4908 42.5532 35.2259C41.5043 34.9576 42.6931 33.9963 43.0697 33.4289C42.5926 33.3216 39.9089 32.4936 39.5943 32.6874L39.5948 32.6874Z" fill="#0E1523"/>
<path d="M43.5015 56.4348C43.6395 56.3892 43.7851 56.3377 43.8776 56.2233C44.2016 55.8213 43.5771 55.2851 43.5865 54.7643C44.7758 54.8586 45.9655 54.9528 47.1548 55.0471C47.5032 55.075 47.8826 55.0947 48.1713 54.8932C48.5249 54.647 49.1733 53.002 49.1733 53.002C49.1733 53.002 54.9488 53.2424 56.479 53.3905C54.7399 53.4876 49.9466 53.58 49.9466 53.58L49.6668 56.0627C49.6668 56.0627 45.7791 55.4053 44.9885 55.6424C45.1777 55.9088 45.3664 56.1757 45.5556 56.4421C43.5607 57.5971 41.199 58.0746 38.9251 57.7827C39.3979 57.8433 40.4233 57.3826 40.9055 57.2364C41.7727 56.9739 42.6409 56.7186 43.5015 56.4344L43.5015 56.4348Z" fill="#0E1523"/>
<path d="M59.2526 46.0792C57.0895 47.4449 54.9264 48.8105 52.7634 50.1762C54.2541 50.182 55.7448 50.1281 57.2313 50.0146C56.1523 51.8376 55.0734 53.66 53.994 55.483C55.88 53.4542 57.6848 51.3466 59.4028 49.1673C58.5652 49.2039 57.7238 49.1399 56.9008 48.9769C58.6305 47.7396 60.2437 46.3317 61.7105 44.7785C61.5044 44.9968 58.791 44.086 58.3999 43.9956C57.2003 43.7191 55.9983 43.4527 54.7921 43.2089C52.4511 42.7358 50.0434 42.253 47.6569 42.1294C49.4612 42.9425 49.3284 45.2358 51.2473 45.2358C54.9814 45.2358 57.1886 45.9181 59.253 46.0787L59.2526 46.0792Z" fill="#0E1523"/>
</g>
<g style="mix-blend-mode:multiply" opacity="0.6">
<path fill-rule="evenodd" clip-rule="evenodd" d="M-2.5 1.89526H4.5L-25 54.8953H-32L-2.5 1.89526ZM8 1.89526H15L-14.5 54.8953H-21.5L8 1.89526ZM25.5 1.89526H18.5L-11 54.8953H-4L25.5 1.89526ZM29 1.89526H36L6.5 54.8953H-0.5L29 1.89526ZM46.5 1.89526H39.5L10 54.8953H17L46.5 1.89526ZM50 1.89526H57L27.5 54.8953H20.5L50 1.89526ZM67.5 1.89526H60.5L31 54.8953H38L67.5 1.89526ZM71 1.89526H78L48.5 54.8953H41.5L71 1.89526ZM88.5 1.89526H81.5L52 54.8953H59L88.5 1.89526Z" fill="#D9D9D9"/>
</g>
<mask id="mask0_1_53443" style="mask-type:alpha" maskUnits="userSpaceOnUse" x="7" y="34" width="50" height="22">
<path d="M15.9687 36.7281C17.189 37.6052 18.4098 38.4818 19.63 39.3589C18.8455 39.9499 17.8229 40.0561 16.858 40.1917C13.4596 40.6697 10.1448 41.7646 7.11455 43.4111C8.66772 44.6051 10.2204 45.7991 11.7736 46.9931C11.4402 48.2751 11.1069 49.557 10.774 50.839C20.5602 51.3838 30.2017 53.4193 39.7996 55.4491C40.0165 54.1051 39.9832 52.7187 39.7015 51.3872C45.1934 48.9377 50.9432 47.095 56.8192 45.901C55.3904 44.1565 53.0349 43.6006 50.8446 43.2106C47.2166 42.5643 43.5619 42.0916 39.909 41.6189C41.2194 40.197 42.6623 38.9035 44.2122 37.7619C39.8189 36.9613 35.4406 38.8669 31.0299 39.5604C30.8224 39.5931 30.5783 39.6113 30.4341 39.455C30.3069 39.317 30.3144 39.1021 30.3369 38.9136C30.4769 37.7489 30.891 36.6199 31.5342 35.6485C28.4729 35.5581 25.4154 35.3307 22.3734 34.9662C21.2734 34.8344 19.5474 33.851 18.5178 34.0737C17.9924 34.1877 16.0424 36.7814 15.9692 36.7285L15.9687 36.7281Z" fill="#0E1523"/>
</mask>
<g mask="url(#mask0_1_53443)">
<path d="M29.5373 58.6317C28.7588 58.9814 17.5412 54.8693 17.1639 54.319C17.063 54.17 17.0682 53.7152 17.1334 53.1294C17.1416 53.0513 17.1513 52.9763 17.161 52.8935C17.161 52.8935 17.161 52.8935 17.1642 52.8841C17.3682 51.3486 17.9146 49.0942 18.0875 48.8761C18.2211 48.7126 21.739 45.7496 23.1677 45.0434C24.5964 44.3372 28.6117 43.3115 28.9467 43.2162C29.4475 43.0778 31.922 44.3848 33.2454 45.1615C33.3561 45.2276 33.4543 45.2843 33.5447 45.341C33.8237 45.5111 34.0232 45.6386 34.0917 45.6983C34.4732 46.0127 30.3094 58.2773 29.531 58.627L29.5373 58.6317Z" fill="url(#paint7_linear_1_53443)"/>
<g style="mix-blend-mode:multiply" opacity="0.2">
<path d="M17.7058 53.8376C17.9664 54.625 25.0799 57.982 28.772 56.5547C30.6697 55.8194 30.5322 52.4099 30.6588 51.0413C30.7887 49.6242 25.9919 51.6639 24.9416 51.9998C23.885 52.3388 25.5865 54.1878 26.1151 54.8076C26.6281 55.4117 28.2319 55.0361 28.5862 54.8142C28.942 54.5955 29.0954 51.7984 28.1085 51.9471C27.1122 52.1004 27.3129 53.3111 26.6487 52.9688C25.9735 52.6203 28.5453 50.7643 29.4591 51.5797C30.3448 52.3699 29.9736 54.5924 27.9258 55.3317C25.8639 56.0741 23.9132 54.7225 23.9804 51.6562C24.0503 48.3273 28.5039 49.9154 30.8424 50.1903C33.0982 50.4554 32.8024 46.0948 32.0779 44.9208C31.3254 43.6982 26.9907 43.4704 23.3442 45.1637C19.6931 46.8553 16.5203 50.2482 17.7058 53.8376Z" fill="#323845"/>
</g>
<g style="mix-blend-mode:soft-light">
<path d="M18.0926 48.8778C17.5934 49.3507 21.3595 49.1538 21.8682 48.9998C22.3769 48.8459 26.6971 46.7884 27.3602 46.371C28.0264 45.952 29.2573 43.3787 29.1533 43.2157C29.0509 43.0558 23.9785 44.5143 23.063 45.0993C22.1507 45.6828 18.474 48.5138 18.0894 48.8794L18.0926 48.8778Z" fill="white"/>
</g>
<path d="M17.3553 54.154C17.5959 54.5146 22.3186 54.6754 22.5753 54.5874C22.8321 54.4995 22.1291 48.9523 21.8647 49.0011C21.6003 49.0499 18.5194 49.103 18.2093 49.2485C17.896 49.3956 16.8492 53.4062 17.3568 54.1572L17.3553 54.154Z" fill="#475085"/>
<g style="mix-blend-mode:multiply" opacity="0.2">
<path d="M23.0369 54.4411C22.603 54.6438 22.3426 49.4003 22.4269 49.0662C22.5144 48.7306 27.1011 46.5102 27.5621 46.5279C28.02 46.5472 30.9533 49.7211 31.0553 49.9669C31.1542 50.2143 25.5368 53.2677 23.0354 54.4379L23.0369 54.4411Z" fill="#565D80"/>
</g>
<g style="mix-blend-mode:multiply" opacity="0.4">
<path d="M34.0962 45.6999C34.4675 46.5457 31.5927 49.7054 31.3264 49.837C31.0601 49.9687 28.0223 46.4099 27.9218 46.1515C27.8199 45.89 29.1671 43.8674 29.4838 43.6407C29.8006 43.4139 34.1009 45.7015 34.1009 45.7015L34.0962 45.6999Z" fill="#69678F"/>
</g>
<g style="mix-blend-mode:multiply" opacity="0.4">
<path d="M23.0371 54.4419C22.5485 54.6444 28.9814 58.5017 29.4079 58.5521C29.8312 58.604 31.3739 50.7539 31.2163 50.364C31.0571 49.9709 28.3772 52.2156 23.0371 54.4419Z" fill="#4B4D60"/>
</g>
<g style="mix-blend-mode:multiply" opacity="0.2">
<path d="M23.0373 54.4414C22.8926 54.6533 26.6969 57.0496 27.3179 57.2728C27.9296 57.4929 28.6254 53.6792 29.7382 52.6808C30.865 51.6716 31.3459 50.7594 31.0663 50.3909C30.7835 50.016 29.0907 51.4103 26.9078 52.6257C24.7313 53.838 23.1852 54.2279 23.0389 54.4445L23.0373 54.4414Z" fill="#685B74"/>
</g>
<g style="mix-blend-mode:soft-light">
<path d="M33.797 47.2712C33.5028 46.9995 31.2895 50.1013 31.2132 50.7121C31.137 51.3151 30.0694 57.8154 30.0174 57.9152C29.9653 58.015 32.745 51.3818 33.797 47.2712Z" fill="#4F5F99"/>
</g>
<g style="mix-blend-mode:soft-light">
<path d="M17.6723 54.6217C17.7535 54.3048 22.3974 54.6058 23.3067 55.0336C24.191 55.4503 29.0156 58.6171 29.0156 58.6171C29.0156 58.6171 21.2474 56.5778 17.6723 54.6217Z" fill="#3E767D"/>
</g>
<g style="mix-blend-mode:soft-light">
<path d="M18.0919 48.878C18.0919 48.878 20.9844 49.3742 21.8676 49C22.7509 48.6258 26.6405 47.0696 27.3595 46.3711C28.0833 45.6664 30.317 41.8801 23.5079 45.0859C20.4331 46.5317 18.0919 48.878 18.0919 48.878Z" fill="#DBF2FF" fill-opacity="0.6"/>
</g>
<g style="mix-blend-mode:soft-light" opacity="0.5">
<path d="M17.1643 54.3194C17.4931 54.535 21.8707 54.6207 22.4592 54.4312C23.0447 54.2431 22.2236 49.5769 22.0963 49.3747C21.9659 49.1741 19.6604 49.1948 19.3837 49.2029C19.1055 49.2079 21.495 49.2704 21.9752 49.8712C22.4461 50.4611 22.333 53.6631 21.4481 54.0577C20.5632 54.4522 17.1643 54.3194 17.1643 54.3194Z" fill="#FFF2FF"/>
</g>
<path opacity="0.4" d="M19.6374 49.0771C19.6374 49.0771 20.9958 48.0392 22.9335 47.4401C24.8525 46.8424 25.0007 47.5762 25.0007 47.5762C25.0007 47.5762 22.5849 48.8249 21.8056 49.0229C21.0216 49.2194 19.639 49.0802 19.639 49.0802L19.6374 49.0771Z" fill="white"/>
<path d="M27.2247 46.4843C27.1627 46.3746 27.8123 45.8274 27.9998 45.8439C28.1826 45.8588 28.3668 46.5865 28.1693 46.7231C27.9701 46.8566 27.2294 46.4859 27.2294 46.4859L27.2247 46.4843Z" fill="#DFE5FF"/>
<path d="M21.4097 49.0743C21.062 49.2228 22.2116 50.0736 22.3197 50.0163C22.4278 49.9589 23.056 48.6192 22.9499 48.5937C22.8406 48.5697 21.4097 49.0743 21.4097 49.0743Z" fill="#DFE5FF"/>
<g style="mix-blend-mode:soft-light">
<path d="M31.0203 55.0459C30.4591 55.409 31.1252 51.5983 31.6249 50.6613C32.1357 49.707 32.5527 51.1422 32.4048 51.6948C32.2585 52.2428 31.0203 55.0459 31.0203 55.0459Z" fill="#FFF2FF"/>
</g>
<path d="M30.8436 50.5009C30.5706 50.3746 30.9644 49.7121 31.0256 49.6623C31.0853 49.6095 31.8176 49.4268 31.8784 49.4552C31.9377 49.4805 31.264 50.5153 31.1575 50.5679C31.0509 50.6206 30.8451 50.504 30.8451 50.504L30.8436 50.5009Z" fill="#DDE3FF"/>
<g style="mix-blend-mode:multiply" opacity="0.4">
<path d="M17.5233 54.3995C17.2303 54.5638 22.7141 56.7771 23.8526 56.9746C24.9693 57.1673 24.207 55.3569 23.2384 54.9196C22.2495 54.4727 17.5233 54.3995 17.5233 54.3995Z" fill="#4D739F"/>
</g>
<path d="M17.0964 54.0329C17.2119 54.4164 21.7628 54.8843 22.2852 54.4662C22.8107 54.0466 22.3181 50.0133 22.3181 50.0133C22.3181 50.0133 22.8523 54.1859 22.9471 54.3145C22.9937 54.3772 25.0046 53.5002 26.9268 52.5306C28.8929 51.5392 30.7814 50.446 30.7814 50.446C30.7814 50.446 27.1537 52.8239 23.0418 54.4431C23.0418 54.4431 23.7221 55.0464 24.6398 55.6883C24.6398 55.6883 23.0195 54.8791 22.2135 54.7707C21.395 54.6606 17.7757 54.5159 17.5929 54.501C17.407 54.4876 17.1011 54.0345 17.1011 54.0345L17.0964 54.0329Z" fill="#686E8B"/>
<path d="M27.9706 46.7476C28.1636 46.933 30.3719 49.0266 30.3719 49.0266L28.2308 46.6035L27.9738 46.7461L27.9706 46.7476Z" fill="#686E8B"/>
<path d="M22.2209 50.7863C22.1434 49.9513 20.8186 49.4716 19.4462 49.4872C18.0504 49.5027 19.7353 53.6133 20.9237 53.8329C22.0872 54.0492 22.2209 50.7863 22.2209 50.7863Z" fill="#4F578C"/>
<path d="M28.3314 46.4364C28.5323 44.8946 32.086 46.0503 33.1102 46.6396C34.1063 47.2115 32.1021 49.3718 31.3614 49.3246C30.6129 49.2775 28.3314 46.4364 28.3314 46.4364Z" fill="#545D96" fill-opacity="0.6"/>
<g style="mix-blend-mode:multiply" opacity="0.2">
<path d="M22.4548 50.6595C22.461 52.7148 24.003 50.1398 25.7542 49.6524C27.4882 49.1695 29.9436 50.217 30.4125 49.88C30.8845 49.5414 27.9128 46.9051 27.3708 46.826C26.8241 46.7454 23.6654 48.4158 23.2357 48.7374C22.8091 49.0574 22.4459 49.8607 22.447 50.6594L22.4548 50.6595Z" fill="#515983"/>
</g>
<path d="M33.5182 45.6111C33.3761 45.5839 33.5294 46.5881 33.2244 47.3041C32.9243 48.0061 31.8751 49.4564 31.8751 49.4564C31.8751 49.4564 33.3786 47.7737 33.6033 47.1714C33.8312 46.5598 33.5198 45.6143 33.5198 45.6143L33.5182 45.6111Z" fill="#DDE3FF"/>
<path d="M17.1626 52.8971C17.1626 52.8971 17.6889 54.0093 17.9831 54.2732C18.2742 54.5309 20.4729 54.641 20.4729 54.641C20.4729 54.641 18.6524 54.2075 18.074 53.5421C17.4801 52.8611 17.2545 52.2786 17.2545 52.2786L17.1626 52.8971Z" fill="#DDE3FF"/>
<g style="mix-blend-mode:multiply" opacity="0.4">
<path d="M17.6722 54.6213C17.6722 54.6213 22.1503 54.6106 23.3531 55.1116C24.5184 55.5999 24.8392 56.8877 24.0838 56.9843C23.3253 57.0824 17.6722 54.6213 17.6722 54.6213Z" fill="#685B74"/>
</g>
<g style="mix-blend-mode:multiply" opacity="0.4">
<path d="M23.1384 54.5279C22.985 54.5803 25.6796 56.6324 26.4581 56.6219C27.224 56.6097 28.067 54.7739 29.1225 53.3205C30.2047 51.8265 30.7911 52.098 30.8394 51.4543C30.8861 50.7996 30.8453 50.504 30.8453 50.504C30.8453 50.504 27.2682 53.0947 23.14 54.531L23.1384 54.5279Z" fill="#685B74"/>
</g>
<g style="mix-blend-mode:multiply" opacity="0.4">
<path d="M31.2289 50.4909C31.1535 50.5671 31.014 52.0279 31.1047 52.0064C31.1955 51.985 31.555 50.6065 31.8406 50.3718C32.1292 50.1355 32.5542 50.8533 32.5875 50.7472C32.6208 50.641 33.4593 47.7549 33.4991 47.6066C33.5373 47.4551 32.0189 49.305 31.7781 49.6775C31.5373 50.0499 31.2304 50.494 31.2304 50.494L31.2289 50.4909Z" fill="#4B4D60"/>
</g>
<g style="mix-blend-mode:multiply" opacity="0.5">
<path d="M33.5462 45.3442C33.5462 45.3442 30.5095 43.9407 29.8932 43.7035C29.2738 43.4599 27.0015 43.3745 24.0014 44.8925C20.9982 46.4121 19.0176 48.1786 18.4671 48.9341C17.9433 49.6648 17.2072 52.703 17.1658 52.8873C17.3697 51.3518 17.9162 49.0973 18.0891 48.8793C18.2211 48.7126 21.739 45.7496 23.1677 45.0434C24.5964 44.3373 28.6117 43.3115 28.9466 43.2162C29.4474 43.0778 31.922 44.3849 33.2454 45.1615C33.3561 45.2276 33.4543 45.2843 33.5447 45.341L33.5462 45.3442Z" fill="#584C61"/>
</g>
<path d="M22.3583 54.6056C22.1508 54.8485 23.1944 54.9565 23.3179 54.9617C23.4413 54.967 23.0161 54.2961 22.8899 54.222C22.7621 54.1448 22.3583 54.6056 22.3583 54.6056Z" fill="white"/>
<path d="M25.2326 56.5802C25.3729 55.9962 27.9355 57.8523 27.9304 57.9523C27.9221 58.0539 25.0493 57.353 25.2326 56.5802Z" fill="white"/>
<g style="mix-blend-mode:multiply" opacity="0.5">
<path d="M29.5372 58.6318C28.7588 58.9814 17.5412 54.8694 17.1639 54.3191C17.063 54.1701 17.0682 53.7153 17.1334 53.1295C17.1675 53.1906 17.9166 54.4694 18.3231 54.787C18.5956 54.9993 21.9041 56.1085 26.1683 57.7629C27.663 58.3419 28.6031 58.1773 29.151 57.9923C29.6754 57.8149 30.5616 56.8077 31.0151 55.0436C32.0925 50.8347 33.4533 47.8853 33.6179 47.0904C33.8738 45.8334 33.2874 45.2071 33.2469 45.1647C33.6819 45.4214 33.9982 45.6198 34.0963 45.7C34.4778 46.0143 30.3141 58.279 29.5357 58.6286L29.5372 58.6318Z" fill="#584C61"/>
</g>
</g>
<g filter="url(#filter2_d_1_53443)">
<path d="M28.6716 36.1035V27.5121L26.5801 28.7509V26.7077L28.8486 25.3723H30.8597V36.1035H28.6716Z" fill="#8392AA"/>
</g>
</g>
<defs>
<filter id="filter0_f_1_53443" x="-10.0549" y="-9.04639" width="77.4272" height="77.4273" filterUnits="userSpaceOnUse" color-interpolation-filters="sRGB">
<feFlood flood-opacity="0" result="BackgroundImageFix"/>
<feBlend mode="normal" in="SourceGraphic" in2="BackgroundImageFix" result="shape"/>
<feGaussianBlur stdDeviation="9.04993" result="effect1_foregroundBlur_1_53443"/>
</filter>
<filter id="filter1_f_1_53443" x="-10.0549" y="-9.04639" width="77.4272" height="77.4273" filterUnits="userSpaceOnUse" color-interpolation-filters="sRGB">
<feFlood flood-opacity="0" result="BackgroundImageFix"/>
<feBlend mode="normal" in="SourceGraphic" in2="BackgroundImageFix" result="shape"/>
<feGaussianBlur stdDeviation="9.04993" result="effect1_foregroundBlur_1_53443"/>
</filter>
<filter id="filter2_d_1_53443" x="24.569" y="24.3668" width="8.3018" height="14.7534" filterUnits="userSpaceOnUse" color-interpolation-filters="sRGB">
<feFlood flood-opacity="0" result="BackgroundImageFix"/>
<feColorMatrix in="SourceAlpha" type="matrix" values="0 0 0 0 0 0 0 0 0 0 0 0 0 0 0 0 0 0 127 0" result="hardAlpha"/>
<feOffset dy="1.00555"/>
<feGaussianBlur stdDeviation="1.00555"/>
<feComposite in2="hardAlpha" operator="out"/>
<feColorMatrix type="matrix" values="0 0 0 0 0 0 0 0 0 0 0 0 0 0 0 0 0 0 0.2 0"/>
<feBlend mode="normal" in2="BackgroundImageFix" result="effect1_dropShadow_1_53443"/>
<feBlend mode="normal" in="SourceGraphic" in2="effect1_dropShadow_1_53443" result="shape"/>
</filter>
<linearGradient id="paint0_linear_1_53443" x1="35.3557" y1="47.5872" x2="35.3557" y2="55.0064" gradientUnits="userSpaceOnUse">
<stop stop-color="#748CB4"/>
<stop offset="1" stop-color="#323D4E"/>
</linearGradient>
<linearGradient id="paint1_linear_1_53443" x1="25.3848" y1="39.6057" x2="25.3848" y2="43.82" gradientUnits="userSpaceOnUse">
<stop stop-color="#748CB4"/>
<stop offset="1" stop-color="#323D4E"/>
</linearGradient>
<linearGradient id="paint2_linear_1_53443" x1="48.4516" y1="41.5991" x2="48.4516" y2="50.0021" gradientUnits="userSpaceOnUse">
<stop stop-color="#748CB4"/>
<stop offset="1" stop-color="#323D4E"/>
</linearGradient>
<linearGradient id="paint3_linear_1_53443" x1="39.442" y1="51.3816" x2="39.442" y2="55.4439" gradientUnits="userSpaceOnUse">
<stop stop-color="#748CB4"/>
<stop offset="1" stop-color="#323D4E"/>
</linearGradient>
<linearGradient id="paint4_linear_1_53443" x1="17.2456" y1="34.0674" x2="17.2456" y2="38.4086" gradientUnits="userSpaceOnUse">
<stop stop-color="#748CB4"/>
<stop offset="1" stop-color="#323D4E"/>
</linearGradient>
<linearGradient id="paint5_linear_1_53443" x1="22.8853" y1="34.865" x2="22.8853" y2="41.9241" gradientUnits="userSpaceOnUse">
<stop stop-color="#748CB4"/>
<stop offset="1" stop-color="#323D4E"/>
</linearGradient>
<linearGradient id="paint6_linear_1_53443" x1="17.1599" y1="39.3542" x2="17.1599" y2="42.3996" gradientUnits="userSpaceOnUse">
<stop stop-color="#748CB4"/>
<stop offset="1" stop-color="#323D4E"/>
</linearGradient>
<linearGradient id="paint7_linear_1_53443" x1="29.8224" y1="58.4908" x2="23.1739" y2="45.0403" gradientUnits="userSpaceOnUse">
<stop stop-color="#73729A"/>
<stop offset="1" stop-color="#6E7EC4"/>
</linearGradient>
<clipPath id="clip0_1_53443">
<rect y="0.00463867" width="58" height="60.2826" rx="14.0777" fill="white"/>
</clipPath>
<clipPath id="clip1_1_53443">
<rect width="58" height="60" fill="white" transform="translate(0 0.00463867)"/>
</clipPath>
<clipPath id="clip2_1_53443">
<rect width="73.405" height="40.2219" fill="white" transform="translate(-5.02734 23.0535)"/>
</clipPath>
</defs>
</svg>
