<svg width="58" height="61" viewBox="0 0 58 61" fill="none" xmlns="http://www.w3.org/2000/svg">
<path d="M0.000244141 17.4291C0.000244141 9.07305 6.77764 2.29565 15.1337 2.29565H42.8668C51.2229 2.29565 58.0002 9.07305 58.0002 17.4291V45.1622C58.0002 53.5183 51.2229 60.2957 42.8668 60.2957H15.1337C6.77764 60.2856 0.000244141 53.5082 0.000244141 45.1521" fill="#133469"/>
<path d="M0 14.866C0 6.66243 6.77739 0.000732422 15.1436 0.000732422H42.8766C51.2226 0.000732422 58 6.66243 58 14.866V42.1256C58 44.8733 57.2458 47.4233 55.9286 49.6373C55.9185 49.6669 55.8984 49.6768 55.8884 49.7065C55.8783 49.7361 55.8481 49.7559 55.818 49.8053C55.818 49.8152 55.8079 49.835 55.8079 49.8448C55.8079 49.8547 55.7979 49.8745 55.7777 49.8943C55.5163 50.2797 55.2549 50.6652 54.9834 51.021C54.4906 51.6635 53.7767 52.4739 52.8617 53.2844C50.1969 55.5972 46.6976 57.0007 42.8665 57.0007H15.1436C9.98509 57.0007 5.42996 54.4606 2.70492 50.5861C2.69487 50.5763 2.69487 50.5565 2.67476 50.5466C0.995493 48.1646 0.0100555 45.2588 0.0100555 42.1355" fill="#1C64C0"/>
<path d="M7.26477 45.669C7.26477 46.4189 6.68147 46.9983 5.99212 46.9983C5.30277 46.9983 4.71947 46.4189 4.71947 45.669C4.71947 44.9191 5.30277 44.3396 5.99212 44.3396C6.68147 44.3396 7.26477 44.9191 7.26477 45.669Z" fill="url(#paint0_linear_1_53427)"/>
<path d="M46.7168 5.85549C46.7168 6.60539 46.1335 7.18486 45.4442 7.18486C44.7548 7.18486 44.1715 6.60539 44.1715 5.85549C44.1715 5.10559 44.7548 4.52612 45.4442 4.52612C46.1335 4.52612 46.7168 5.10559 46.7168 5.85549Z" fill="url(#paint1_linear_1_53427)"/>
<path d="M8.06017 48.5999C8.06017 49.0771 7.68898 49.4861 7.26477 49.4861C6.84055 49.4861 6.46936 49.0771 6.46936 48.5999C6.46936 48.1227 6.84055 47.7136 7.26477 47.7136C7.68898 47.7136 8.06017 48.1227 8.06017 48.5999Z" fill="url(#paint2_linear_1_53427)"/>
<path d="M9.86309 49.0427C9.86309 49.3835 9.62447 49.6903 9.35933 49.6903C9.0942 49.6903 8.85558 49.4176 8.85558 49.0427C8.85558 48.6677 9.0942 48.395 9.35933 48.395C9.62447 48.395 9.86309 48.6677 9.86309 49.0427Z" fill="url(#paint3_linear_1_53427)"/>
<path d="M4.53388 43.9306C4.53388 44.2715 4.29526 44.5782 4.03012 44.5782C3.76499 44.5782 3.52637 44.3056 3.52637 43.9306C3.52637 43.5557 3.76499 43.283 4.03012 43.283C4.29526 43.283 4.53388 43.5557 4.53388 43.9306Z" fill="url(#paint4_linear_1_53427)"/>
<path d="M47.7243 8.48114C47.7243 8.822 47.4857 9.12878 47.2206 9.12878C46.9554 9.12878 46.7168 8.85609 46.7168 8.48114C46.7168 8.10619 46.9554 7.8335 47.2206 7.8335C47.4857 7.8335 47.7243 8.10619 47.7243 8.48114Z" fill="url(#paint5_linear_1_53427)"/>
<path d="M14.6355 53.3375C14.9137 53.3375 15.1393 53.0476 15.1393 52.6899C15.1393 52.3322 14.9137 52.0422 14.6355 52.0422C14.3573 52.0422 14.1318 52.3322 14.1318 52.6899C14.1318 53.0476 14.3573 53.3375 14.6355 53.3375Z" fill="url(#paint6_linear_1_53427)"/>
<path d="M11.9311 52.4513C13.0733 52.4513 13.9992 51.7798 13.9992 50.9515C13.9992 50.1231 13.0733 49.4517 11.9311 49.4517C10.789 49.4517 9.86309 50.1231 9.86309 50.9515C9.86309 51.7798 10.789 52.4513 11.9311 52.4513Z" fill="url(#paint7_linear_1_53427)"/>
<g style="mix-blend-mode:soft-light" opacity="0.2">
<path d="M1.45854 48.3265C1.76021 35.1337 20.212 52.0772 32.3389 52.0772C44.4658 52.0772 50.1271 38.7235 54.9235 40.6642C59.72 42.6049 54.6621 53.505 45.9741 55.8379C37.2862 58.1708 16.039 57.1049 10.5688 56.2904C5.09862 55.4759 1.44849 48.3265 1.44849 48.3265H1.45854Z" fill="white"/>
</g>
<g style="mix-blend-mode:soft-light">
<path d="M55.8883 49.5613C55.8883 49.5613 55.8481 49.6417 55.8078 49.7021C55.8078 49.7121 55.7978 49.7322 55.7777 49.7523C55.6268 50.0037 55.3654 50.4059 54.9833 50.8987C54.4906 51.5523 53.7766 52.3768 52.8616 53.2014C50.1969 55.5543 46.6976 56.9822 42.8664 56.9822H15.1435C9.98503 56.9822 5.4299 54.398 2.70486 50.4562C2.69481 50.4462 2.69481 50.4261 2.6747 50.416C2.56409 50.1948 2.4937 50.0641 2.48364 50.0037C2.89592 50.3356 11.3023 56.8716 31.2021 56.8716C49.7042 56.8716 54.9934 50.8082 55.828 49.6618C55.8581 49.6216 55.8782 49.5914 55.8983 49.5613H55.8883Z" fill="#49A3F3"/>
</g>
<g style="mix-blend-mode:color-dodge" filter="url(#filter0_f_1_53427)">
<circle cx="28.6582" cy="29.6672" r="20.6137" fill="#9788AF" fill-opacity="0.37"/>
</g>
<defs>
<filter id="filter0_f_1_53427" x="-10.0554" y="-9.04639" width="77.4272" height="77.4273" filterUnits="userSpaceOnUse" color-interpolation-filters="sRGB">
<feFlood flood-opacity="0" result="BackgroundImageFix"/>
<feBlend mode="normal" in="SourceGraphic" in2="BackgroundImageFix" result="shape"/>
<feGaussianBlur stdDeviation="9.04993" result="effect1_foregroundBlur_1_53427"/>
</filter>
<linearGradient id="paint0_linear_1_53427" x1="6.76101" y1="46.453" x2="5.04576" y2="45.4099" gradientUnits="userSpaceOnUse">
<stop stop-color="#0058FF"/>
<stop offset="1" stop-color="#021DA1"/>
</linearGradient>
<linearGradient id="paint1_linear_1_53427" x1="46.2131" y1="6.63948" x2="44.4978" y2="5.59639" gradientUnits="userSpaceOnUse">
<stop stop-color="#0058FF"/>
<stop offset="1" stop-color="#0220B0"/>
</linearGradient>
<linearGradient id="paint2_linear_1_53427" x1="7.76852" y1="49.1112" x2="6.68017" y2="48.4581" gradientUnits="userSpaceOnUse">
<stop stop-color="#0058FF"/>
<stop offset="1" stop-color="#021DA1"/>
</linearGradient>
<linearGradient id="paint3_linear_1_53427" x1="9.70401" y1="49.3835" x2="8.98656" y2="48.9468" gradientUnits="userSpaceOnUse">
<stop stop-color="#0058FF"/>
<stop offset="1" stop-color="#021DA1"/>
</linearGradient>
<linearGradient id="paint4_linear_1_53427" x1="4.34828" y1="44.2715" x2="3.63084" y2="43.8347" gradientUnits="userSpaceOnUse">
<stop stop-color="#0058FF"/>
<stop offset="1" stop-color="#021DA1"/>
</linearGradient>
<linearGradient id="paint5_linear_1_53427" x1="47.5387" y1="8.822" x2="46.8213" y2="8.38527" gradientUnits="userSpaceOnUse">
<stop stop-color="#0058FF"/>
<stop offset="1" stop-color="#0220B0"/>
</linearGradient>
<linearGradient id="paint6_linear_1_53427" x1="14.9537" y1="53.0307" x2="14.2362" y2="52.594" gradientUnits="userSpaceOnUse">
<stop stop-color="#0058FF"/>
<stop offset="1" stop-color="#021DA1"/>
</linearGradient>
<linearGradient id="paint7_linear_1_53427" x1="13.1242" y1="52.1445" x2="10.5592" y2="50.5629" gradientUnits="userSpaceOnUse">
<stop stop-color="#0058FF"/>
<stop offset="1" stop-color="#021DA1"/>
</linearGradient>
</defs>
</svg>
